{
	"asset":{
		"generator":"Khronos glTF Blender I/O v5.1.18",
		"version":"2.0"
	},
	"scene":5,
	"scenes":[
		{
			"name":"Chest",
			"nodes":[
				6
			]
		},
		{
			"name":"Floor",
			"nodes":[
				7
			]
		},
		{
			"name":"Key",
			"nodes":[
				11
			]
		},
		{
			"name":"Lid",
			"nodes":[
				17
			]
		},
		{
			"name":"Painting",
			"nodes":[
				18,
				19
			]
		},
		{
			"name":"PuzzleLayout",
			"nodes":[
				21,
				36,
				37,
				42,
				44,
				46,
				49,
				51
			]
		}
	],
	"nodes":[
		{
			"mesh":0,
			"name":"Cube",
			"translation":[
				-0.15000000596046448,
				1.2000000476837158,
				-0.5
			]
		},
		{
			"mesh":1,
			"name":"Cube.001",
			"translation":[
				0.15000000596046448,
				1.2000000476837158,
				-0.5
			]
		},
		{
			"mesh":2,
			"name":"Cube.004",
			"translation":[
				0.625,
				0.5,
				0
			]
		},
		{
			"mesh":3,
			"name":"Cube.005",
			"translation":[
				-0.625,
				0.5,
				0
			]
		},
		{
			"mesh":4,
			"name":"Cylinder",
			"translation":[
				0,
				1.25,
				0.5
			]
		},
		{
			"children":[
				0,
				1,
				2,
				3,
				4
			],
			"mesh":5,
			"name":"Chest1",
			"translation":[
				0,
				-0.5,
				0
			]
		},
		{
			"children":[
				5
			],
			"name":"Chest.001"
		},
		{
			"mesh":6,
			"name":"Grid"
		},
		{
			"mesh":7,
			"name":"Cube.008",
			"rotation":[
				0.7071068286895752,
				0,
				0,
				0.7071068286895752
			],
			"translation":[
				0,
				0.024999944493174553,
				-0.03399992361664772
			]
		},
		{
			"mesh":8,
			"name":"Torus.001",
			"rotation":[
				0.5,
				0.5,
				-0.5,
				0.5
			],
			"translation":[
				0,
				0.3750000596046448,
				0
			]
		},
		{
			"children":[
				8,
				9
			],
			"mesh":9,
			"name":"Key1"
		},
		{
			"children":[
				10
			],
			"name":"Key.001"
		},
		{
			"mesh":10,
			"name":"Cube.002",
			"scale":[
				0.5,
				0.5,
				0.5
			],
			"translation":[
				0,
				0,
				-1
			]
		},
		{
			"mesh":11,
			"name":"Cube.003",
			"scale":[
				0.5,
				0.5,
				0.5
			],
			"translation":[
				0.625,
				-0.75,
				-0.5
			]
		},
		{
			"mesh":12,
			"name":"Cube.006",
			"scale":[
				0.5,
				0.5,
				0.5
			],
			"translation":[
				-0.625,
				-0.75,
				-0.5
			]
		},
		{
			"mesh":13,
			"name":"Cube.007",
			"scale":[
				0.5,
				0.5,
				0.5
			],
			"translation":[
				0,
				0,
				-1.0525000095367432
			]
		},
		{
			"children":[
				12,
				13,
				14,
				15
			],
			"mesh":14,
			"name":"Lid1"
		},
		{
			"children":[
				16
			],
			"name":"Lid.001",
			"translation":[
				0,
				0.75,
				0.5
			]
		},
		{
			"mesh":15,
			"name":"Guppy",
			"scale":[
				0.800000011920929,
				0.800000011920929,
				0.800000011920929
			]
		},
		{
			"mesh":16,
			"name":"Plane"
		},
		{
			"mesh":17,
			"name":"Grid"
		},
		{
			"children":[
				20
			],
			"name":"Floor"
		},
		{
			"mesh":0,
			"name":"Cube",
			"translation":[
				-0.15000000596046448,
				1.2000000476837158,
				-0.5000001192092896
			]
		},
		{
			"mesh":1,
			"name":"Cube.001",
			"translation":[
				0.15000002086162567,
				1.2000000476837158,
				-0.5000000596046448
			]
		},
		{
			"mesh":2,
			"name":"Cube.004",
			"translation":[
				0.6250000596046448,
				0.5,
				0
			]
		},
		{
			"mesh":3,
			"name":"Cube.005",
			"translation":[
				-0.6250000596046448,
				0.5,
				0
			]
		},
		{
			"mesh":4,
			"name":"Cylinder",
			"translation":[
				0,
				1.25,
				0.5000000596046448
			]
		},
		{
			"children":[
				22,
				23,
				24,
				25,
				26
			],
			"mesh":5,
			"name":"Chest1",
			"translation":[
				0,
				-0.5,
				0
			]
		},
		{
			"children":[
				27
			],
			"name":"Chest.001"
		},
		{
			"mesh":10,
			"name":"Cube.002",
			"scale":[
				0.4999999701976776,
				0.5,
				0.4999999701976776
			],
			"translation":[
				0,
				0,
				-0.9999999403953552
			]
		},
		{
			"mesh":11,
			"name":"Cube.003",
			"scale":[
				0.4999999701976776,
				0.5,
				0.4999999701976776
			],
			"translation":[
				0.625,
				-0.7499999403953552,
				-0.4999999701976776
			]
		},
		{
			"mesh":12,
			"name":"Cube.006",
			"scale":[
				0.4999999701976776,
				0.5,
				0.4999999701976776
			],
			"translation":[
				-0.6249999403953552,
				-0.7499999403953552,
				-0.4999999701976776
			]
		},
		{
			"mesh":13,
			"name":"Cube.007",
			"scale":[
				0.4999999701976776,
				0.5,
				0.4999999701976776
			],
			"translation":[
				0,
				0,
				-1.0524998903274536
			]
		},
		{
			"children":[
				29,
				30,
				31,
				32
			],
			"mesh":14,
			"name":"Lid1"
		},
		{
			"children":[
				33
			],
			"name":"Lid.001",
			"translation":[
				0,
				0.75,
				0.4999999701976776
			]
		},
		{
			"children":[
				34
			],
			"name":"i-lid",
			"rotation":[
				0,
				0.9999851584434509,
				0,
				0.005452172830700874
			],
			"translation":[
				0.006142973899841309,
				0.04999995231628418,
				-3.2126448154449463
			]
		},
		{
			"children":[
				28,
				35
			],
			"name":"i-chest",
			"rotation":[
				0,
				0.9999851584434509,
				0,
				0.005452172830700874
			],
			"translation":[
				0.006142973899841309,
				0.04999995231628418,
				-3.2126448154449463
			]
		},
		{
			"camera":0,
			"name":"z-main",
			"rotation":[
				-0.026171240955591202,
				0.020860975608229637,
				0.0005462637636810541,
				0.9994396567344666
			],
			"translation":[
				0.2876850962638855,
				1.7999999523162842,
				3.5219614505767822
			]
		},
		{
			"mesh":7,
			"name":"Cube.008",
			"rotation":[
				0.7071068286895752,
				0,
				0,
				0.7071068286895752
			],
			"translation":[
				0,
				0.02499997615814209,
				-0.03399990499019623
			]
		},
		{
			"mesh":8,
			"name":"Torus.001",
			"rotation":[
				0.5,
				0.5,
				-0.5,
				0.5
			],
			"translation":[
				0,
				0.37500011920928955,
				0
			]
		},
		{
			"children":[
				38,
				39
			],
			"mesh":9,
			"name":"Key1"
		},
		{
			"children":[
				40
			],
			"name":"Key.001"
		},
		{
			"children":[
				41
			],
			"name":"i-key",
			"rotation":[
				0,
				0.9999851584434509,
				0,
				0.005452172830700874
			],
			"translation":[
				1.8697419166564941,
				1.8349050283432007,
				-1.0496277809143066
			]
		},
		{
			"name":"z-hanging-key/clickable",
			"rotation":[
				0.07369724661111832,
				-0.8825019001960754,
				-0.14768008887767792,
				0.4403974413871765
			],
			"scale":[
				0.5000000596046448,
				0.5000001788139343,
				0.5000000596046448
			],
			"translation":[
				-0.029049845412373543,
				0.10938563942909241,
				-1.5605158805847168
			]
		},
		{
			"camera":1,
			"children":[
				43
			],
			"name":"z-hanging-key",
			"rotation":[
				0.20072954893112183,
				-0.4398236870765686,
				0.10154127329587936,
				0.869455099105835
			],
			"translation":[
				0.8119881749153137,
				1.2450300455093384,
				-0.2389082908630371
			]
		},
		{
			"name":"z-chest/clickable",
			"rotation":[
				0.006811819970607758,
				0.9655912518501282,
				0.25872936844825745,
				0.025422003120183945
			],
			"translation":[
				-0.1003149151802063,
				-0.2227117270231247,
				-2.71158766746521
			]
		},
		{
			"camera":2,
			"children":[
				45
			],
			"name":"z-chest",
			"rotation":[
				-0.2587626576423645,
				0.020157063379883766,
				0.005401067901402712,
				0.9657155275344849
			],
			"translation":[
				0.19152796268463135,
				1.7999999523162842,
				-0.9791021347045898
			]
		},
		{
			"mesh":15,
			"name":"Guppy",
			"scale":[
				0.800000011920929,
				0.800000011920929,
				0.800000011920929
			]
		},
		{
			"mesh":18,
			"name":"Plane"
		},
		{
			"children":[
				47,
				48
			],
			"name":"i-painting",
			"rotation":[
				0.70709627866745,
				-0.003855068702250719,
				0.0038550689350813627,
				0.70709627866745
			],
			"scale":[
				0.5,
				0.5,
				0.5
			],
			"translation":[
				-0.007097959518432617,
				2.03607439994812,
				-3.9514989852905273
			]
		},
		{
			"name":"z-painting/clickable",
			"rotation":[
				-0.3117403984069824,
				0.9235595464706421,
				0.22195594012737274,
				0.02431531623005867
			],
			"scale":[
				0.5000000596046448,
				0.5000000596046448,
				0.5
			],
			"translation":[
				0.051180850714445114,
				0.022436339408159256,
				-1.7323716878890991
			]
		},
		{
			"camera":3,
			"children":[
				50
			],
			"name":"z-painting",
			"rotation":[
				0,
				0.020868130028247833,
				0,
				0.9997822642326355
			],
			"translation":[
				0.03503553569316864,
				2.0173025131225586,
				-1.8630242347717285
			]
		}
	],
	"cameras":[
		{
			"name":"Camera",
			"perspective":{
				"aspectRatio":1.7777777777777777,
				"yfov":0.39959652046304894,
				"zfar":1000,
				"znear":0.10000000149011612
			},
			"type":"perspective"
		},
		{
			"name":"Camera.001",
			"perspective":{
				"aspectRatio":1.7777777777777777,
				"yfov":0.39959652046304894,
				"zfar":1000,
				"znear":0.10000000149011612
			},
			"type":"perspective"
		},
		{
			"name":"Camera.002",
			"perspective":{
				"aspectRatio":1.7777777777777777,
				"yfov":0.39959652046304894,
				"zfar":1000,
				"znear":0.10000000149011612
			},
			"type":"perspective"
		},
		{
			"name":"Camera.003",
			"perspective":{
				"aspectRatio":1.7777777777777777,
				"yfov":0.39959652046304894,
				"zfar":1000,
				"znear":0.10000000149011612
			},
			"type":"perspective"
		}
	],
	"materials":[
		{
			"doubleSided":true,
			"name":"Brass",
			"pbrMetallicRoughness":{
				"baseColorFactor":[
					0.8008443117141724,
					0.40225428342819214,
					0.01535090059041977,
					1
				],
				"metallicFactor":0.800000011920929,
				"roughnessFactor":0.5
			}
		},
		{
			"doubleSided":true,
			"name":"Wood",
			"pbrMetallicRoughness":{
				"baseColorFactor":[
					0.10167486220598221,
					0.04471199959516525,
					0.004471339751034975,
					1
				],
				"metallicFactor":0,
				"roughnessFactor":0.5
			}
		},
		{
			"doubleSided":true,
			"name":"StoneFloor",
			"pbrMetallicRoughness":{
				"baseColorTexture":{
					"index":0
				},
				"metallicFactor":0.10000000149011612,
				"roughnessFactor":0.5
			}
		},
		{
			"doubleSided":true,
			"name":"Iron",
			"pbrMetallicRoughness":{
				"baseColorFactor":[
					0.17485535144805908,
					0.17485535144805908,
					0.17485535144805908,
					1
				],
				"metallicFactor":0.6000000238418579,
				"roughnessFactor":0.5
			}
		},
		{
			"doubleSided":true,
			"name":"Painting",
			"pbrMetallicRoughness":{
				"baseColorTexture":{
					"index":1
				},
				"metallicFactor":0,
				"roughnessFactor":0.5
			}
		}
	],
	"meshes":[
		{
			"name":"Cube.004",
			"primitives":[
				{
					"attributes":{
						"POSITION":0,
						"NORMAL":1,
						"TEXCOORD_0":2
					},
					"indices":3,
					"material":0
				}
			]
		},
		{
			"name":"Cube.005",
			"primitives":[
				{
					"attributes":{
						"POSITION":4,
						"NORMAL":5,
						"TEXCOORD_0":6
					},
					"indices":3,
					"material":0
				}
			]
		},
		{
			"name":"Cube.009",
			"primitives":[
				{
					"attributes":{
						"POSITION":7,
						"NORMAL":8,
						"TEXCOORD_0":9
					},
					"indices":10,
					"material":0
				}
			]
		},
		{
			"name":"Cube.011",
			"primitives":[
				{
					"attributes":{
						"POSITION":11,
						"NORMAL":12,
						"TEXCOORD_0":13
					},
					"indices":10,
					"material":0
				}
			]
		},
		{
			"name":"Cylinder",
			"primitives":[
				{
					"attributes":{
						"POSITION":14,
						"NORMAL":15,
						"TEXCOORD_0":16
					},
					"indices":17,
					"material":0
				}
			]
		},
		{
			"name":"Cube",
			"primitives":[
				{
					"attributes":{
						"POSITION":18,
						"NORMAL":19,
						"TEXCOORD_0":20
					},
					"indices":21,
					"material":1
				}
			]
		},
		{
			"name":"Grid.002",
			"primitives":[
				{
					"attributes":{
						"POSITION":22,
						"NORMAL":23,
						"TEXCOORD_0":24
					},
					"indices":25,
					"material":2
				}
			]
		},
		{
			"name":"Cube.008",
			"primitives":[
				{
					"attributes":{
						"POSITION":26,
						"NORMAL":27,
						"TEXCOORD_0":28
					},
					"indices":29,
					"material":3
				}
			]
		},
		{
			"name":"Torus.001",
			"primitives":[
				{
					"attributes":{
						"POSITION":30,
						"NORMAL":31,
						"TEXCOORD_0":32
					},
					"indices":33,
					"material":0
				}
			]
		},
		{
			"name":"Cylinder.001",
			"primitives":[
				{
					"attributes":{
						"POSITION":34,
						"NORMAL":35,
						"TEXCOORD_0":36
					},
					"indices":37,
					"material":3
				}
			]
		},
		{
			"name":"Cube.002",
			"primitives":[
				{
					"attributes":{
						"POSITION":38,
						"NORMAL":39,
						"TEXCOORD_0":40
					},
					"indices":41,
					"material":0
				}
			]
		},
		{
			"name":"Cube.010",
			"primitives":[
				{
					"attributes":{
						"POSITION":42,
						"NORMAL":43,
						"TEXCOORD_0":44
					},
					"indices":45,
					"material":0
				}
			]
		},
		{
			"name":"Cube.012",
			"primitives":[
				{
					"attributes":{
						"POSITION":46,
						"NORMAL":47,
						"TEXCOORD_0":48
					},
					"indices":45,
					"material":0
				}
			]
		},
		{
			"name":"Cube.003",
			"primitives":[
				{
					"attributes":{
						"POSITION":49,
						"NORMAL":50,
						"TEXCOORD_0":51
					},
					"indices":52,
					"material":3
				}
			]
		},
		{
			"name":"Cube.001",
			"primitives":[
				{
					"attributes":{
						"POSITION":53,
						"NORMAL":54,
						"TEXCOORD_0":55
					},
					"indices":56,
					"material":1
				}
			]
		},
		{
			"name":"Plane",
			"primitives":[
				{
					"attributes":{
						"POSITION":57,
						"NORMAL":58,
						"TEXCOORD_0":59
					},
					"indices":60,
					"material":4
				}
			]
		},
		{
			"name":"Plane.002",
			"primitives":[
				{
					"attributes":{
						"POSITION":61,
						"NORMAL":62,
						"TEXCOORD_0":63
					},
					"indices":64,
					"material":0
				}
			]
		},
		{
			"name":"Grid.002",
			"primitives":[
				{
					"attributes":{
						"POSITION":65,
						"NORMAL":66,
						"TEXCOORD_0":67
					},
					"indices":25,
					"material":2
				}
			]
		},
		{
			"name":"Plane.002",
			"primitives":[
				{
					"attributes":{
						"POSITION":68,
						"NORMAL":69,
						"TEXCOORD_0":70
					},
					"indices":64,
					"material":0
				}
			]
		}
	],
	"textures":[
		{
			"sampler":0,
			"source":0
		},
		{
			"sampler":0,
			"source":1
		}
	],
	"images":[
		{
			"mimeType":"image/png",
			"name":"cave_canem",
			"uri":"cave_canem.png"
		},
		{
			"mimeType":"image/png",
			"name":"guppy",
			"uri":"guppy.png"
		}
	],
	"accessors":[
		{
			"bufferView":0,
			"componentType":5126,
			"count":24,
			"max":[
				0.050000011920928955,
				0.050000011920928955,
				0.050000011920928955
			],
			"min":[
				-0.050000011920928955,
				-0.050000011920928955,
				-0.050000011920928955
			],
			"type":"VEC3"
		},
		{
			"bufferView":1,
			"componentType":5126,
			"count":24,
			"type":"VEC3"
		},
		{
			"bufferView":2,
			"componentType":5126,
			"count":24,
			"type":"VEC2"
		},
		{
			"bufferView":3,
			"componentType":5123,
			"count":36,
			"type":"SCALAR"
		},
		{
			"bufferView":4,
			"componentType":5126,
			"count":24,
			"max":[
				0.050000011920928955,
				0.050000011920928955,
				0.050000011920928955
			],
			"min":[
				-0.050000011920928955,
				-0.050000011920928955,
				-0.050000011920928955
			],
			"type":"VEC3"
		},
		{
			"bufferView":5,
			"componentType":5126,
			"count":24,
			"type":"VEC3"
		},
		{
			"bufferView":6,
			"componentType":5126,
			"count":24,
			"type":"VEC2"
		},
		{
			"bufferView":7,
			"componentType":5126,
			"count":80,
			"max":[
				0.07500001788139343,
				0.7499999403953552,
				0.5074999332427979
			],
			"min":[
				-0.07500001788139343,
				-0.005560893565416336,
				-0.5074999332427979
			],
			"type":"VEC3"
		},
		{
			"bufferView":8,
			"componentType":5126,
			"count":80,
			"type":"VEC3"
		},
		{
			"bufferView":9,
			"componentType":5126,
			"count":80,
			"type":"VEC2"
		},
		{
			"bufferView":10,
			"componentType":5123,
			"count":132,
			"type":"SCALAR"
		},
		{
			"bufferView":11,
			"componentType":5126,
			"count":80,
			"max":[
				0.07500001788139343,
				0.7499999403953552,
				0.5074999332427979
			],
			"min":[
				-0.07500001788139343,
				-0.005560893565416336,
				-0.5074999332427979
			],
			"type":"VEC3"
		},
		{
			"bufferView":12,
			"componentType":5126,
			"count":80,
			"type":"VEC3"
		},
		{
			"bufferView":13,
			"componentType":5126,
			"count":80,
			"type":"VEC2"
		},
		{
			"bufferView":14,
			"componentType":5126,
			"count":192,
			"max":[
				0.20000004768371582,
				0.050000011920928955,
				0.050000011920928955
			],
			"min":[
				-0.20000004768371582,
				-0.050000011920928955,
				-0.050000011920928955
			],
			"type":"VEC3"
		},
		{
			"bufferView":15,
			"componentType":5126,
			"count":192,
			"type":"VEC3"
		},
		{
			"bufferView":16,
			"componentType":5126,
			"count":192,
			"type":"VEC2"
		},
		{
			"bufferView":17,
			"componentType":5123,
			"count":372,
			"type":"SCALAR"
		},
		{
			"bufferView":18,
			"componentType":5126,
			"count":120,
			"max":[
				1,
				1.25,
				0.5
			],
			"min":[
				-1,
				0.5,
				-0.5
			],
			"type":"VEC3"
		},
		{
			"bufferView":19,
			"componentType":5126,
			"count":120,
			"type":"VEC3"
		},
		{
			"bufferView":20,
			"componentType":5126,
			"count":120,
			"type":"VEC2"
		},
		{
			"bufferView":21,
			"componentType":5123,
			"count":228,
			"type":"SCALAR"
		},
		{
			"bufferView":22,
			"componentType":5126,
			"count":1536,
			"max":[
				4.015824317932129,
				0.13866138458251953,
				4.012784481048584
			],
			"min":[
				-4.013484954833984,
				-0.13866138458251953,
				-4.015594005584717
			],
			"type":"VEC3"
		},
		{
			"bufferView":23,
			"componentType":5126,
			"count":1536,
			"type":"VEC3"
		},
		{
			"bufferView":24,
			"componentType":5126,
			"count":1536,
			"type":"VEC2"
		},
		{
			"bufferView":25,
			"componentType":5123,
			"count":2304,
			"type":"SCALAR"
		},
		{
			"bufferView":26,
			"componentType":5126,
			"count":1564,
			"max":[
				0.004000016022473574,
				0.025000009685754776,
				0.02500000409781933
			],
			"min":[
				-0.004000004380941391,
				-0.025000009685754776,
				-0.02500000409781933
			],
			"type":"VEC3"
		},
		{
			"bufferView":27,
			"componentType":5126,
			"count":1564,
			"type":"VEC3"
		},
		{
			"bufferView":28,
			"componentType":5126,
			"count":1564,
			"type":"VEC2"
		},
		{
			"bufferView":29,
			"componentType":5123,
			"count":3144,
			"type":"SCALAR"
		},
		{
			"bufferView":30,
			"componentType":5126,
			"count":2319,
			"max":[
				0.06875001639127731,
				0.014999998733401299,
				0.07500021904706955
			],
			"min":[
				-0.06875001639127731,
				-0.014999998733401299,
				-0.0312500074505806
			],
			"type":"VEC3"
		},
		{
			"bufferView":31,
			"componentType":5126,
			"count":2319,
			"type":"VEC3"
		},
		{
			"bufferView":32,
			"componentType":5126,
			"count":2319,
			"type":"VEC2"
		},
		{
			"bufferView":33,
			"componentType":5123,
			"count":11034,
			"type":"SCALAR"
		},
		{
			"bufferView":34,
			"componentType":5126,
			"count":192,
			"max":[
				0.012000002898275852,
				0.30000007152557373,
				0.012000068090856075
			],
			"min":[
				-0.012000002898275852,
				-1.341104507446289e-07,
				-0.011999937705695629
			],
			"type":"VEC3"
		},
		{
			"bufferView":35,
			"componentType":5126,
			"count":192,
			"type":"VEC3"
		},
		{
			"bufferView":36,
			"componentType":5126,
			"count":192,
			"type":"VEC2"
		},
		{
			"bufferView":37,
			"componentType":5123,
			"count":372,
			"type":"SCALAR"
		},
		{
			"bufferView":38,
			"componentType":5126,
			"count":60,
			"max":[
				0.20000004768371582,
				0.20000006258487701,
				0.1000000461935997
			],
			"min":[
				-0.20000004768371582,
				-0.40000003576278687,
				-0.10000002384185791
			],
			"type":"VEC3"
		},
		{
			"bufferView":39,
			"componentType":5126,
			"count":60,
			"type":"VEC3"
		},
		{
			"bufferView":40,
			"componentType":5126,
			"count":60,
			"type":"VEC2"
		},
		{
			"bufferView":41,
			"componentType":5123,
			"count":108,
			"type":"SCALAR"
		},
		{
			"bufferView":42,
			"componentType":5126,
			"count":80,
			"max":[
				0.15000003576278687,
				2.014103889465332,
				1.0139271020889282
			],
			"min":[
				-0.15000003576278687,
				1.4999998807907104,
				-1.0139271020889282
			],
			"type":"VEC3"
		},
		{
			"bufferView":43,
			"componentType":5126,
			"count":80,
			"type":"VEC3"
		},
		{
			"bufferView":44,
			"componentType":5126,
			"count":80,
			"type":"VEC2"
		},
		{
			"bufferView":45,
			"componentType":5123,
			"count":132,
			"type":"SCALAR"
		},
		{
			"bufferView":46,
			"componentType":5126,
			"count":80,
			"max":[
				0.15000003576278687,
				2.014103889465332,
				1.0139271020889282
			],
			"min":[
				-0.15000003576278687,
				1.4999998807907104,
				-1.0139271020889282
			],
			"type":"VEC3"
		},
		{
			"bufferView":47,
			"componentType":5126,
			"count":80,
			"type":"VEC3"
		},
		{
			"bufferView":48,
			"componentType":5126,
			"count":80,
			"type":"VEC2"
		},
		{
			"bufferView":49,
			"componentType":5126,
			"count":210,
			"max":[
				0.09000004827976227,
				-0.009999955072999,
				0.00500000175088644
			],
			"min":[
				-0.09000004827976227,
				-0.1900000423192978,
				-0.005000003147870302
			],
			"type":"VEC3"
		},
		{
			"bufferView":50,
			"componentType":5126,
			"count":210,
			"type":"VEC3"
		},
		{
			"bufferView":51,
			"componentType":5126,
			"count":210,
			"type":"VEC2"
		},
		{
			"bufferView":52,
			"componentType":5123,
			"count":420,
			"type":"SCALAR"
		},
		{
			"bufferView":53,
			"componentType":5126,
			"count":84,
			"max":[
				1,
				0.25,
				0
			],
			"min":[
				-1,
				0,
				-1
			],
			"type":"VEC3"
		},
		{
			"bufferView":54,
			"componentType":5126,
			"count":84,
			"type":"VEC3"
		},
		{
			"bufferView":55,
			"componentType":5126,
			"count":84,
			"type":"VEC2"
		},
		{
			"bufferView":56,
			"componentType":5123,
			"count":132,
			"type":"SCALAR"
		},
		{
			"bufferView":57,
			"componentType":5126,
			"count":4,
			"max":[
				1,
				0,
				1
			],
			"min":[
				-1,
				0,
				-1
			],
			"type":"VEC3"
		},
		{
			"bufferView":58,
			"componentType":5126,
			"count":4,
			"type":"VEC3"
		},
		{
			"bufferView":59,
			"componentType":5126,
			"count":4,
			"type":"VEC2"
		},
		{
			"bufferView":60,
			"componentType":5123,
			"count":6,
			"type":"SCALAR"
		},
		{
			"bufferView":61,
			"componentType":5126,
			"count":328,
			"max":[
				1,
				0.050000011920928955,
				1.0000001192092896
			],
			"min":[
				-1,
				-9.48542506762351e-08,
				-1
			],
			"type":"VEC3"
		},
		{
			"bufferView":62,
			"componentType":5126,
			"count":328,
			"type":"VEC3"
		},
		{
			"bufferView":63,
			"componentType":5126,
			"count":328,
			"type":"VEC2"
		},
		{
			"bufferView":64,
			"componentType":5123,
			"count":504,
			"type":"SCALAR"
		},
		{
			"bufferView":65,
			"componentType":5126,
			"count":1536,
			"max":[
				4.015824317932129,
				0.13866138458251953,
				4.012784481048584
			],
			"min":[
				-4.013484954833984,
				-0.13866138458251953,
				-4.015594005584717
			],
			"type":"VEC3"
		},
		{
			"bufferView":66,
			"componentType":5126,
			"count":1536,
			"type":"VEC3"
		},
		{
			"bufferView":67,
			"componentType":5126,
			"count":1536,
			"type":"VEC2"
		},
		{
			"bufferView":68,
			"componentType":5126,
			"count":328,
			"max":[
				1,
				0.050000011920928955,
				1.0000001192092896
			],
			"min":[
				-1,
				-9.48542506762351e-08,
				-1
			],
			"type":"VEC3"
		},
		{
			"bufferView":69,
			"componentType":5126,
			"count":328,
			"type":"VEC3"
		},
		{
			"bufferView":70,
			"componentType":5126,
			"count":328,
			"type":"VEC2"
		}
	],
	"bufferViews":[
		{
			"buffer":0,
			"byteLength":288,
			"byteOffset":0,
			"target":34962
		},
		{
			"buffer":0,
			"byteLength":288,
			"byteOffset":288,
			"target":34962
		},
		{
			"buffer":0,
			"byteLength":192,
			"byteOffset":576,
			"target":34962
		},
		{
			"buffer":0,
			"byteLength":72,
			"byteOffset":768,
			"target":34963
		},
		{
			"buffer":0,
			"byteLength":288,
			"byteOffset":840,
			"target":34962
		},
		{
			"buffer":0,
			"byteLength":288,
			"byteOffset":1128,
			"target":34962
		},
		{
			"buffer":0,
			"byteLength":192,
			"byteOffset":1416,
			"target":34962
		},
		{
			"buffer":0,
			"byteLength":960,
			"byteOffset":1608,
			"target":34962
		},
		{
			"buffer":0,
			"byteLength":960,
			"byteOffset":2568,
			"target":34962
		},
		{
			"buffer":0,
			"byteLength":640,
			"byteOffset":3528,
			"target":34962
		},
		{
			"buffer":0,
			"byteLength":264,
			"byteOffset":4168,
			"target":34963
		},
		{
			"buffer":0,
			"byteLength":960,
			"byteOffset":4432,
			"target":34962
		},
		{
			"buffer":0,
			"byteLength":960,
			"byteOffset":5392,
			"target":34962
		},
		{
			"buffer":0,
			"byteLength":640,
			"byteOffset":6352,
			"target":34962
		},
		{
			"buffer":0,
			"byteLength":2304,
			"byteOffset":6992,
			"target":34962
		},
		{
			"buffer":0,
			"byteLength":2304,
			"byteOffset":9296,
			"target":34962
		},
		{
			"buffer":0,
			"byteLength":1536,
			"byteOffset":11600,
			"target":34962
		},
		{
			"buffer":0,
			"byteLength":744,
			"byteOffset":13136,
			"target":34963
		},
		{
			"buffer":0,
			"byteLength":1440,
			"byteOffset":13880,
			"target":34962
		},
		{
			"buffer":0,
			"byteLength":1440,
			"byteOffset":15320,
			"target":34962
		},
		{
			"buffer":0,
			"byteLength":960,
			"byteOffset":16760,
			"target":34962
		},
		{
			"buffer":0,
			"byteLength":456,
			"byteOffset":17720,
			"target":34963
		},
		{
			"buffer":0,
			"byteLength":18432,
			"byteOffset":18176,
			"target":34962
		},
		{
			"buffer":0,
			"byteLength":18432,
			"byteOffset":36608,
			"target":34962
		},
		{
			"buffer":0,
			"byteLength":12288,
			"byteOffset":55040,
			"target":34962
		},
		{
			"buffer":0,
			"byteLength":4608,
			"byteOffset":67328,
			"target":34963
		},
		{
			"buffer":0,
			"byteLength":18768,
			"byteOffset":71936,
			"target":34962
		},
		{
			"buffer":0,
			"byteLength":18768,
			"byteOffset":90704,
			"target":34962
		},
		{
			"buffer":0,
			"byteLength":12512,
			"byteOffset":109472,
			"target":34962
		},
		{
			"buffer":0,
			"byteLength":6288,
			"byteOffset":121984,
			"target":34963
		},
		{
			"buffer":0,
			"byteLength":27828,
			"byteOffset":128272,
			"target":34962
		},
		{
			"buffer":0,
			"byteLength":27828,
			"byteOffset":156100,
			"target":34962
		},
		{
			"buffer":0,
			"byteLength":18552,
			"byteOffset":183928,
			"target":34962
		},
		{
			"buffer":0,
			"byteLength":22068,
			"byteOffset":202480,
			"target":34963
		},
		{
			"buffer":0,
			"byteLength":2304,
			"byteOffset":224548,
			"target":34962
		},
		{
			"buffer":0,
			"byteLength":2304,
			"byteOffset":226852,
			"target":34962
		},
		{
			"buffer":0,
			"byteLength":1536,
			"byteOffset":229156,
			"target":34962
		},
		{
			"buffer":0,
			"byteLength":744,
			"byteOffset":230692,
			"target":34963
		},
		{
			"buffer":0,
			"byteLength":720,
			"byteOffset":231436,
			"target":34962
		},
		{
			"buffer":0,
			"byteLength":720,
			"byteOffset":232156,
			"target":34962
		},
		{
			"buffer":0,
			"byteLength":480,
			"byteOffset":232876,
			"target":34962
		},
		{
			"buffer":0,
			"byteLength":216,
			"byteOffset":233356,
			"target":34963
		},
		{
			"buffer":0,
			"byteLength":960,
			"byteOffset":233572,
			"target":34962
		},
		{
			"buffer":0,
			"byteLength":960,
			"byteOffset":234532,
			"target":34962
		},
		{
			"buffer":0,
			"byteLength":640,
			"byteOffset":235492,
			"target":34962
		},
		{
			"buffer":0,
			"byteLength":264,
			"byteOffset":236132,
			"target":34963
		},
		{
			"buffer":0,
			"byteLength":960,
			"byteOffset":236396,
			"target":34962
		},
		{
			"buffer":0,
			"byteLength":960,
			"byteOffset":237356,
			"target":34962
		},
		{
			"buffer":0,
			"byteLength":640,
			"byteOffset":238316,
			"target":34962
		},
		{
			"buffer":0,
			"byteLength":2520,
			"byteOffset":238956,
			"target":34962
		},
		{
			"buffer":0,
			"byteLength":2520,
			"byteOffset":241476,
			"target":34962
		},
		{
			"buffer":0,
			"byteLength":1680,
			"byteOffset":243996,
			"target":34962
		},
		{
			"buffer":0,
			"byteLength":840,
			"byteOffset":245676,
			"target":34963
		},
		{
			"buffer":0,
			"byteLength":1008,
			"byteOffset":246516,
			"target":34962
		},
		{
			"buffer":0,
			"byteLength":1008,
			"byteOffset":247524,
			"target":34962
		},
		{
			"buffer":0,
			"byteLength":672,
			"byteOffset":248532,
			"target":34962
		},
		{
			"buffer":0,
			"byteLength":264,
			"byteOffset":249204,
			"target":34963
		},
		{
			"buffer":0,
			"byteLength":48,
			"byteOffset":249468,
			"target":34962
		},
		{
			"buffer":0,
			"byteLength":48,
			"byteOffset":249516,
			"target":34962
		},
		{
			"buffer":0,
			"byteLength":32,
			"byteOffset":249564,
			"target":34962
		},
		{
			"buffer":0,
			"byteLength":12,
			"byteOffset":249596,
			"target":34963
		},
		{
			"buffer":0,
			"byteLength":3936,
			"byteOffset":249608,
			"target":34962
		},
		{
			"buffer":0,
			"byteLength":3936,
			"byteOffset":253544,
			"target":34962
		},
		{
			"buffer":0,
			"byteLength":2624,
			"byteOffset":257480,
			"target":34962
		},
		{
			"buffer":0,
			"byteLength":1008,
			"byteOffset":260104,
			"target":34963
		},
		{
			"buffer":0,
			"byteLength":18432,
			"byteOffset":261112,
			"target":34962
		},
		{
			"buffer":0,
			"byteLength":18432,
			"byteOffset":279544,
			"target":34962
		},
		{
			"buffer":0,
			"byteLength":12288,
			"byteOffset":297976,
			"target":34962
		},
		{
			"buffer":0,
			"byteLength":3936,
			"byteOffset":310264,
			"target":34962
		},
		{
			"buffer":0,
			"byteLength":3936,
			"byteOffset":314200,
			"target":34962
		},
		{
			"buffer":0,
			"byteLength":2624,
			"byteOffset":318136,
			"target":34962
		}
	],
	"samplers":[
		{
			"magFilter":9729,
			"minFilter":9987
		}
	],
	"buffers":[
		{
			"byteLength":320760,
			"uri":"puzzle.bin"
		}
	]
}
