{
	"asset":{
		"generator":"Khronos glTF Blender I/O v5.1.18",
		"version":"2.0"
	},
	"scene":6,
	"scenes":[
		{
			"name":"Chest",
			"nodes":[
				6
			]
		},
		{
			"name":"Cryptex",
			"nodes":[
				7,
				8,
				9,
				13,
				17,
				21,
				25
			]
		},
		{
			"name":"Floor",
			"nodes":[
				26
			]
		},
		{
			"name":"Key",
			"nodes":[
				31
			]
		},
		{
			"name":"Lid",
			"nodes":[
				37
			]
		},
		{
			"name":"Painting",
			"nodes":[
				38,
				39,
				40
			]
		},
		{
			"name":"PuzzleLayout",
			"nodes":[
				42,
				57,
				58,
				64,
				66,
				68,
				72,
				74,
				82,
				102,
				104
			]
		},
		{
			"name":"Wall",
			"nodes":[
				105,
				106,
				107,
				108,
				109,
				110,
				111,
				112,
				113,
				114,
				115,
				116
			]
		}
	],
	"nodes":[
		{
			"mesh":0,
			"name":"Cube",
			"translation":[
				-0.15000000596046448,
				1.2000000476837158,
				-0.5
			]
		},
		{
			"mesh":1,
			"name":"Cube.001",
			"translation":[
				0.15000000596046448,
				1.2000000476837158,
				-0.5
			]
		},
		{
			"mesh":2,
			"name":"Cube.004",
			"translation":[
				0.625,
				0.5,
				0
			]
		},
		{
			"mesh":3,
			"name":"Cube.005",
			"translation":[
				-0.625,
				0.5,
				0
			]
		},
		{
			"mesh":4,
			"name":"Cylinder",
			"translation":[
				0,
				1.25,
				0.5
			]
		},
		{
			"children":[
				0,
				1,
				2,
				3,
				4
			],
			"mesh":5,
			"name":"Chest1",
			"translation":[
				0,
				-0.5,
				0
			]
		},
		{
			"children":[
				5
			],
			"name":"Chest.001"
		},
		{
			"mesh":6,
			"name":"Cylinder.002",
			"rotation":[
				0,
				0,
				-0.7071068286895752,
				0.7071068286895752
			],
			"scale":[
				1,
				0.75,
				1
			]
		},
		{
			"mesh":7,
			"name":"Cylinder.003",
			"rotation":[
				0,
				0,
				-0.7071068286895752,
				0.7071068286895752
			],
			"scale":[
				1.2000000476837158,
				0.5,
				1.2000000476837158
			],
			"translation":[
				3.5,
				0,
				0
			]
		},
		{
			"mesh":8,
			"name":"i-endcap",
			"scale":[
				1.2000000476837158,
				0.5,
				1.2000000476837158
			]
		},
		{
			"mesh":9,
			"name":"Cube.013",
			"scale":[
				-0.8333333134651184,
				-2,
				-0.8333333134651184
			]
		},
		{
			"mesh":10,
			"name":"Letters",
			"rotation":[
				-0.5000000596046448,
				-0.4999999403953552,
				0.5,
				0.4999999403953552
			],
			"scale":[
				2,
				0.8333333134651184,
				0.8333333134651184
			]
		},
		{
			"children":[
				10,
				11
			],
			"mesh":11,
			"name":"Ring",
			"rotation":[
				0,
				0,
				-0.7071068286895752,
				0.7071068286895752
			],
			"scale":[
				1.2000000476837158,
				0.5,
				1.2000000476837158
			]
		},
		{
			"children":[
				12
			],
			"name":"i-ring0",
			"translation":[
				-1.7999999523162842,
				0,
				0
			]
		},
		{
			"mesh":12,
			"name":"Cube.013",
			"scale":[
				-0.8333333134651184,
				-2,
				-0.8333333134651184
			]
		},
		{
			"mesh":13,
			"name":"Letters",
			"rotation":[
				-0.5000000596046448,
				-0.4999999403953552,
				0.5,
				0.4999999403953552
			],
			"scale":[
				2,
				0.8333333134651184,
				0.8333333134651184
			]
		},
		{
			"children":[
				14,
				15
			],
			"mesh":11,
			"name":"Ring",
			"rotation":[
				0,
				0,
				-0.7071068286895752,
				0.7071068286895752
			],
			"scale":[
				1.2000000476837158,
				0.5,
				1.2000000476837158
			]
		},
		{
			"children":[
				16
			],
			"name":"i-ring1",
			"translation":[
				-0.6000000238418579,
				0,
				0
			]
		},
		{
			"mesh":14,
			"name":"Cube.013",
			"scale":[
				-0.8333333134651184,
				-2,
				-0.8333333134651184
			]
		},
		{
			"mesh":15,
			"name":"Letters",
			"rotation":[
				-0.5000000596046448,
				-0.4999999403953552,
				0.5,
				0.4999999403953552
			],
			"scale":[
				2,
				0.8333333134651184,
				0.8333333134651184
			]
		},
		{
			"children":[
				18,
				19
			],
			"mesh":11,
			"name":"Ring",
			"rotation":[
				0,
				0,
				-0.7071068286895752,
				0.7071068286895752
			],
			"scale":[
				1.2000000476837158,
				0.5,
				1.2000000476837158
			]
		},
		{
			"children":[
				20
			],
			"name":"i-ring2",
			"translation":[
				0.6000000238418579,
				0,
				0
			]
		},
		{
			"mesh":16,
			"name":"Cube.013",
			"scale":[
				-0.8333333134651184,
				-2,
				-0.8333333134651184
			]
		},
		{
			"mesh":17,
			"name":"Letters",
			"rotation":[
				-0.5000000596046448,
				-0.4999999403953552,
				0.5,
				0.4999999403953552
			],
			"scale":[
				2,
				0.8333333134651184,
				0.8333333134651184
			]
		},
		{
			"children":[
				22,
				23
			],
			"mesh":11,
			"name":"Ring",
			"rotation":[
				0,
				0,
				-0.7071068286895752,
				0.7071068286895752
			],
			"scale":[
				1.2000000476837158,
				0.5,
				1.2000000476837158
			]
		},
		{
			"children":[
				24
			],
			"name":"i-ring3",
			"translation":[
				1.7999999523162842,
				0,
				0
			]
		},
		{
			"mesh":18,
			"name":"Grid"
		},
		{
			"mesh":19,
			"name":"Cube.008",
			"rotation":[
				0.7071068286895752,
				0,
				0,
				0.7071068286895752
			],
			"translation":[
				0,
				0.024999944493174553,
				-0.03399992361664772
			]
		},
		{
			"mesh":20,
			"name":"Sphere",
			"scale":[
				0.009999999776482582,
				0.009999999776482582,
				0.009999999776482582
			]
		},
		{
			"mesh":21,
			"name":"Torus.001",
			"rotation":[
				0.5,
				0.5,
				-0.5,
				0.5
			],
			"translation":[
				0,
				0.3750000596046448,
				0
			]
		},
		{
			"children":[
				27,
				28,
				29
			],
			"mesh":22,
			"name":"Key1"
		},
		{
			"children":[
				30
			],
			"name":"Key.001"
		},
		{
			"mesh":23,
			"name":"Cube.002",
			"scale":[
				0.5,
				0.5,
				0.5
			],
			"translation":[
				0,
				0,
				-1
			]
		},
		{
			"mesh":24,
			"name":"Cube.003",
			"scale":[
				0.5,
				0.5,
				0.5
			],
			"translation":[
				0.625,
				-0.75,
				-0.5
			]
		},
		{
			"mesh":25,
			"name":"Cube.006",
			"scale":[
				0.5,
				0.5,
				0.5
			],
			"translation":[
				-0.625,
				-0.75,
				-0.5
			]
		},
		{
			"mesh":26,
			"name":"Cube.007",
			"scale":[
				0.5,
				0.5,
				0.5
			],
			"translation":[
				0,
				0,
				-1.0525000095367432
			]
		},
		{
			"children":[
				32,
				33,
				34,
				35
			],
			"mesh":27,
			"name":"Lid1"
		},
		{
			"children":[
				36
			],
			"name":"Lid.001",
			"translation":[
				0,
				0.75,
				0.5
			]
		},
		{
			"mesh":28,
			"name":"Guppy",
			"scale":[
				0.800000011920929,
				0.800000011920929,
				0.800000011920929
			]
		},
		{
			"mesh":29,
			"name":"Plane"
		},
		{
			"mesh":30,
			"name":"Text",
			"scale":[
				0.3499999940395355,
				2,
				0.3499999940395355
			],
			"translation":[
				-0.17212271690368652,
				0.04825685918331146,
				0.9672322869300842
			]
		},
		{
			"mesh":31,
			"name":"Grid"
		},
		{
			"children":[
				41
			],
			"name":"p-floor"
		},
		{
			"mesh":0,
			"name":"Cube",
			"translation":[
				-0.15000000596046448,
				1.2000000476837158,
				-0.5000001192092896
			]
		},
		{
			"mesh":1,
			"name":"Cube.001",
			"translation":[
				0.15000002086162567,
				1.2000000476837158,
				-0.5000000596046448
			]
		},
		{
			"mesh":2,
			"name":"Cube.004",
			"translation":[
				0.6250000596046448,
				0.5,
				0
			]
		},
		{
			"mesh":3,
			"name":"Cube.005",
			"translation":[
				-0.6250000596046448,
				0.5,
				0
			]
		},
		{
			"mesh":4,
			"name":"Cylinder",
			"translation":[
				0,
				1.25,
				0.5000000596046448
			]
		},
		{
			"children":[
				43,
				44,
				45,
				46,
				47
			],
			"mesh":5,
			"name":"Chest1",
			"translation":[
				0,
				-0.5,
				0
			]
		},
		{
			"children":[
				48
			],
			"name":"Chest.001"
		},
		{
			"mesh":23,
			"name":"Cube.002",
			"scale":[
				0.4999999701976776,
				0.5,
				0.4999999701976776
			],
			"translation":[
				0,
				0,
				-0.9999999403953552
			]
		},
		{
			"mesh":24,
			"name":"Cube.003",
			"scale":[
				0.4999999701976776,
				0.5,
				0.4999999701976776
			],
			"translation":[
				0.625,
				-0.7499999403953552,
				-0.4999999701976776
			]
		},
		{
			"mesh":25,
			"name":"Cube.006",
			"scale":[
				0.4999999701976776,
				0.5,
				0.4999999701976776
			],
			"translation":[
				-0.6249999403953552,
				-0.7499999403953552,
				-0.4999999701976776
			]
		},
		{
			"mesh":26,
			"name":"Cube.007",
			"scale":[
				0.4999999701976776,
				0.5,
				0.4999999701976776
			],
			"translation":[
				0,
				0,
				-1.0524998903274536
			]
		},
		{
			"children":[
				50,
				51,
				52,
				53
			],
			"mesh":27,
			"name":"Lid1"
		},
		{
			"children":[
				54
			],
			"name":"Lid.001",
			"translation":[
				0,
				0.75,
				0.4999999701976776
			]
		},
		{
			"children":[
				55
			],
			"name":"i-lid",
			"rotation":[
				0,
				0.9999851584434509,
				0,
				0.005452172830700874
			],
			"translation":[
				0.006142973899841309,
				0.04999995231628418,
				-3.2126448154449463
			]
		},
		{
			"children":[
				49,
				56
			],
			"name":"i-chest",
			"rotation":[
				0,
				0.9999851584434509,
				0,
				0.005452172830700874
			],
			"translation":[
				0.006142973899841309,
				0.04999995231628418,
				-3.2126448154449463
			]
		},
		{
			"camera":0,
			"name":"z-main",
			"rotation":[
				-0.026171240955591202,
				0.020860975608229637,
				0.0005462637636810541,
				0.9994396567344666
			],
			"translation":[
				0.2876850962638855,
				1.7999999523162842,
				3.5219614505767822
			]
		},
		{
			"mesh":19,
			"name":"Cube.008",
			"rotation":[
				0.7071068286895752,
				0,
				0,
				0.7071068286895752
			],
			"translation":[
				0,
				0.02499997615814209,
				-0.03399990499019623
			]
		},
		{
			"mesh":20,
			"name":"Sphere",
			"scale":[
				0.010000000707805157,
				0.009999999776482582,
				0.010000000707805157
			]
		},
		{
			"mesh":21,
			"name":"Torus.001",
			"rotation":[
				0.5,
				0.5,
				-0.5,
				0.5
			],
			"translation":[
				0,
				0.37500011920928955,
				0
			]
		},
		{
			"children":[
				59,
				60,
				61
			],
			"mesh":22,
			"name":"Key1"
		},
		{
			"children":[
				62
			],
			"name":"Key.001"
		},
		{
			"children":[
				63
			],
			"name":"i-key",
			"rotation":[
				0,
				0.9999851584434509,
				0,
				0.005452172830700874
			],
			"translation":[
				1.8697419166564941,
				1.8349050283432007,
				-1.0496277809143066
			]
		},
		{
			"name":"z-hanging-key/clickable",
			"rotation":[
				0.07369724661111832,
				-0.8825019001960754,
				-0.14768008887767792,
				0.4403974413871765
			],
			"scale":[
				0.5000000596046448,
				0.5000001788139343,
				0.5000000596046448
			],
			"translation":[
				-0.029049845412373543,
				0.10938563942909241,
				-1.5605158805847168
			]
		},
		{
			"camera":1,
			"children":[
				65
			],
			"name":"z-hanging-key",
			"rotation":[
				0.20072954893112183,
				-0.4398236870765686,
				0.10154127329587936,
				0.869455099105835
			],
			"translation":[
				0.8119881749153137,
				1.2450300455093384,
				-0.2389082908630371
			]
		},
		{
			"name":"z-chest/clickable",
			"rotation":[
				0.006811819970607758,
				0.9655912518501282,
				0.25872936844825745,
				0.025422003120183945
			],
			"translation":[
				-0.1003149151802063,
				-0.2227117270231247,
				-2.71158766746521
			]
		},
		{
			"camera":2,
			"children":[
				67
			],
			"name":"z-chest",
			"rotation":[
				-0.2587626576423645,
				0.020157063379883766,
				0.005401067901402712,
				0.9657155275344849
			],
			"translation":[
				0.19152796268463135,
				1.7999999523162842,
				-0.9791021347045898
			]
		},
		{
			"mesh":28,
			"name":"Guppy",
			"scale":[
				0.800000011920929,
				0.7999998927116394,
				0.7999999523162842
			]
		},
		{
			"mesh":32,
			"name":"Plane"
		},
		{
			"mesh":33,
			"name":"Text",
			"scale":[
				0.34999996423721313,
				1.9999998807907104,
				0.34999996423721313
			],
			"translation":[
				-0.17212273180484772,
				0.04825706407427788,
				0.9672324657440186
			]
		},
		{
			"children":[
				69,
				70,
				71
			],
			"name":"i-painting",
			"rotation":[
				0.7132399678230286,
				-0.003821280784904957,
				0.0038885637186467648,
				0.7008988261222839
			],
			"scale":[
				0.5,
				0.5,
				0.5
			],
			"translation":[
				-0.007097959518432617,
				2.03607439994812,
				-3.9514989852905273
			]
		},
		{
			"name":"z-painting/clickable",
			"rotation":[
				-0.3117403984069824,
				0.9235595464706421,
				0.22195594012737274,
				0.02431531623005867
			],
			"scale":[
				0.5000000596046448,
				0.5000000596046448,
				0.5
			],
			"translation":[
				0.051180850714445114,
				0.022436339408159256,
				-1.7323716878890991
			]
		},
		{
			"camera":3,
			"children":[
				73
			],
			"name":"z-painting",
			"rotation":[
				0,
				0.020868130028247833,
				0,
				0.9997822642326355
			],
			"translation":[
				0.03503553569316864,
				2.0173025131225586,
				-1.8630242347717285
			]
		},
		{
			"mesh":34,
			"name":"skirtingboard"
		},
		{
			"mesh":35,
			"name":"Cube.009",
			"translation":[
				-9,
				0,
				0
			]
		},
		{
			"mesh":36,
			"name":"Sphere.001",
			"translation":[
				-6,
				0,
				0
			]
		},
		{
			"mesh":37,
			"name":"Cylinder.001",
			"translation":[
				-12,
				0,
				0
			]
		},
		{
			"mesh":38,
			"name":"Cube.010",
			"translation":[
				-3.9000000953674316,
				0.5,
				-4.022244930267334
			]
		},
		{
			"mesh":39,
			"name":"Cube.011",
			"rotation":[
				0,
				0.7071068286895752,
				0,
				0.7071068286895752
			],
			"translation":[
				-4.02244234085083,
				0.5,
				3.8997292518615723
			]
		},
		{
			"mesh":40,
			"name":"Cube.012",
			"rotation":[
				0,
				-0.7071068286895752,
				0,
				0.7071068286895752
			],
			"translation":[
				4.022457122802734,
				0.5,
				-3.899858236312866
			]
		},
		{
			"children":[
				75,
				76,
				77,
				78,
				79,
				80,
				81
			],
			"name":"p-wall",
			"translation":[
				-0.029402852058410645,
				0.04397892951965332,
				0.02572154998779297
			]
		},
		{
			"mesh":6,
			"name":"Cylinder.002",
			"rotation":[
				0,
				0,
				-0.7071068286895752,
				0.7071068286895752
			],
			"scale":[
				1,
				0.75,
				1
			]
		},
		{
			"mesh":7,
			"name":"Cylinder.003",
			"rotation":[
				0,
				0,
				-0.7071068286895752,
				0.7071068286895752
			],
			"scale":[
				1.1999999284744263,
				0.4999999701976776,
				1.1999999284744263
			],
			"translation":[
				3.5,
				0,
				0
			]
		},
		{
			"mesh":8,
			"name":"i-endcap",
			"scale":[
				1.2000000476837158,
				0.4999999701976776,
				1.1999999284744263
			]
		},
		{
			"mesh":41,
			"name":"Cube.013",
			"scale":[
				-0.8333332538604736,
				-2,
				-0.8333333134651184
			]
		},
		{
			"mesh":42,
			"name":"Letters",
			"rotation":[
				-0.5000000596046448,
				-0.5,
				0.5,
				0.5000001192092896
			],
			"scale":[
				2,
				0.8333333134651184,
				0.8333332538604736
			]
		},
		{
			"children":[
				86,
				87
			],
			"mesh":11,
			"name":"Ring",
			"rotation":[
				0,
				0,
				-0.7071068286895752,
				0.7071068286895752
			],
			"scale":[
				1.1999999284744263,
				0.4999999701976776,
				1.1999999284744263
			]
		},
		{
			"children":[
				88
			],
			"name":"i-ring0",
			"translation":[
				-1.7999993562698364,
				0,
				0
			]
		},
		{
			"mesh":43,
			"name":"Cube.013",
			"scale":[
				-0.8333332538604736,
				-2,
				-0.8333333134651184
			],
			"translation":[
				0,
				4.291534423828125e-06,
				0
			]
		},
		{
			"mesh":44,
			"name":"Letters",
			"rotation":[
				-0.5000000596046448,
				-0.5,
				0.5,
				0.5000001192092896
			],
			"scale":[
				2,
				0.8333333134651184,
				0.8333332538604736
			],
			"translation":[
				0,
				4.291534423828125e-06,
				0
			]
		},
		{
			"children":[
				90,
				91
			],
			"mesh":11,
			"name":"Ring",
			"rotation":[
				0,
				0,
				-0.7071068286895752,
				0.7071068286895752
			],
			"scale":[
				1.1999999284744263,
				0.4999999701976776,
				1.1999999284744263
			]
		},
		{
			"children":[
				92
			],
			"name":"i-ring1",
			"translation":[
				-0.6000012159347534,
				0,
				0
			]
		},
		{
			"mesh":45,
			"name":"Cube.013",
			"scale":[
				-0.8333332538604736,
				-2,
				-0.8333333134651184
			]
		},
		{
			"mesh":46,
			"name":"Letters",
			"rotation":[
				-0.5000000596046448,
				-0.5,
				0.5,
				0.5000001192092896
			],
			"scale":[
				2,
				0.8333333134651184,
				0.8333332538604736
			]
		},
		{
			"children":[
				94,
				95
			],
			"mesh":11,
			"name":"Ring",
			"rotation":[
				0,
				0,
				-0.7071068286895752,
				0.7071068286895752
			],
			"scale":[
				1.1999999284744263,
				0.4999999701976776,
				1.1999999284744263
			]
		},
		{
			"children":[
				96
			],
			"name":"i-ring2",
			"translation":[
				0.6000008583068848,
				0,
				0
			]
		},
		{
			"mesh":47,
			"name":"Cube.013",
			"scale":[
				-0.8333332538604736,
				-2,
				-0.8333333134651184
			],
			"translation":[
				0,
				-3.5762786865234375e-06,
				0
			]
		},
		{
			"mesh":48,
			"name":"Letters",
			"rotation":[
				-0.5000000596046448,
				-0.5,
				0.5,
				0.5000001192092896
			],
			"scale":[
				2,
				0.8333333134651184,
				0.8333332538604736
			],
			"translation":[
				0,
				-3.5762786865234375e-06,
				0
			]
		},
		{
			"children":[
				98,
				99
			],
			"mesh":11,
			"name":"Ring",
			"rotation":[
				0,
				0,
				-0.7071068286895752,
				0.7071068286895752
			],
			"scale":[
				1.1999999284744263,
				0.4999999701976776,
				1.1999999284744263
			]
		},
		{
			"children":[
				100
			],
			"name":"i-ring3",
			"translation":[
				1.7999989986419678,
				0,
				0
			]
		},
		{
			"children":[
				83,
				84,
				85,
				89,
				93,
				97,
				101
			],
			"name":"i-cryptex",
			"rotation":[
				0.0599166639149189,
				0.3155047595500946,
				-0.03262379765510559,
				0.9464684128761292
			],
			"scale":[
				0.10000000149011612,
				0.10000000149011612,
				0.10000000149011612
			],
			"translation":[
				-2.1778299808502197,
				1.1862627267837524,
				-0.4354811906814575
			]
		},
		{
			"name":"z-cryptex/clickable",
			"rotation":[
				-0.3279489576816559,
				0.8790234327316284,
				0.15034493803977966,
				0.31171101331710815
			],
			"scale":[
				0.5000001192092896,
				0.5000001192092896,
				0.5
			],
			"translation":[
				-0.0030286721885204315,
				0.03711448609828949,
				-1.6861900091171265
			]
		},
		{
			"camera":4,
			"children":[
				103
			],
			"name":"z-cryptex",
			"rotation":[
				-0.032174158841371536,
				0.31229734420776367,
				0.03735658898949623,
				0.9487042427062988
			],
			"translation":[
				-1.141224980354309,
				1.3339416980743408,
				0.8847986459732056
			]
		},
		{
			"name":"Profile.001"
		},
		{
			"mesh":49,
			"name":"sb",
			"rotation":[
				0,
				0.054706182330846786,
				0,
				0.9985024929046631
			],
			"translation":[
				5.606504440307617,
				0,
				0
			]
		},
		{
			"mesh":50,
			"name":"sb.001",
			"rotation":[
				0,
				0.7447310090065002,
				0,
				0.667364776134491
			],
			"translation":[
				5.606504440307617,
				0,
				0
			]
		},
		{
			"mesh":51,
			"name":"Plane.007",
			"translation":[
				-8.995565414428711,
				0.8412569165229797,
				-3.000297784805298
			]
		},
		{
			"name":"Profile.002",
			"translation":[
				1,
				0,
				0
			]
		},
		{
			"mesh":34,
			"name":"skirtingboard"
		},
		{
			"mesh":35,
			"name":"Cube.009",
			"translation":[
				-9,
				0,
				0
			]
		},
		{
			"mesh":36,
			"name":"Sphere.001",
			"translation":[
				-6,
				0,
				0
			]
		},
		{
			"mesh":37,
			"name":"Cylinder.001",
			"translation":[
				-12,
				0,
				0
			]
		},
		{
			"mesh":52,
			"name":"Cube.010",
			"translation":[
				-3.9000000953674316,
				0.5,
				-4.022244930267334
			]
		},
		{
			"mesh":53,
			"name":"Cube.011",
			"rotation":[
				0,
				0.7071068286895752,
				0,
				0.7071068286895752
			],
			"translation":[
				-4.02244234085083,
				0.5,
				3.8997292518615723
			]
		},
		{
			"mesh":54,
			"name":"Cube.012",
			"rotation":[
				0,
				-0.7071068286895752,
				0,
				0.7071068286895752
			],
			"translation":[
				4.022457122802734,
				0.5,
				-3.899858236312866
			]
		}
	],
	"cameras":[
		{
			"name":"Camera",
			"perspective":{
				"aspectRatio":1.7777777777777777,
				"yfov":0.39959652046304894,
				"zfar":1000,
				"znear":0.10000000149011612
			},
			"type":"perspective"
		},
		{
			"name":"Camera.001",
			"perspective":{
				"aspectRatio":1.7777777777777777,
				"yfov":0.39959652046304894,
				"zfar":1000,
				"znear":0.10000000149011612
			},
			"type":"perspective"
		},
		{
			"name":"Camera.002",
			"perspective":{
				"aspectRatio":1.7777777777777777,
				"yfov":0.39959652046304894,
				"zfar":1000,
				"znear":0.10000000149011612
			},
			"type":"perspective"
		},
		{
			"name":"Camera.003",
			"perspective":{
				"aspectRatio":1.7777777777777777,
				"yfov":0.39959652046304894,
				"zfar":1000,
				"znear":0.10000000149011612
			},
			"type":"perspective"
		},
		{
			"name":"Camera.004",
			"perspective":{
				"aspectRatio":1.7777777777777777,
				"yfov":0.39959652046304894,
				"zfar":1000,
				"znear":0.10000000149011612
			},
			"type":"perspective"
		}
	],
	"materials":[
		{
			"doubleSided":true,
			"name":"Brass",
			"pbrMetallicRoughness":{
				"baseColorFactor":[
					0.8008443117141724,
					0.40225428342819214,
					0.01535090059041977,
					1
				],
				"metallicFactor":0.800000011920929,
				"roughnessFactor":0.5
			}
		},
		{
			"doubleSided":true,
			"name":"Wood",
			"pbrMetallicRoughness":{
				"baseColorFactor":[
					0.10167486220598221,
					0.04471199959516525,
					0.004471339751034975,
					1
				],
				"metallicFactor":0,
				"roughnessFactor":0.5
			}
		},
		{
			"doubleSided":true,
			"name":"Iron",
			"pbrMetallicRoughness":{
				"baseColorFactor":[
					0.17485535144805908,
					0.17485535144805908,
					0.17485535144805908,
					1
				],
				"metallicFactor":0.6000000238418579,
				"roughnessFactor":0.5
			}
		},
		{
			"doubleSided":true,
			"name":"StoneFloor",
			"pbrMetallicRoughness":{
				"baseColorTexture":{
					"index":0
				},
				"metallicFactor":0.10000000149011612,
				"roughnessFactor":0.5
			}
		},
		{
			"doubleSided":true,
			"name":"Painting",
			"pbrMetallicRoughness":{
				"baseColorTexture":{
					"index":1
				},
				"metallicFactor":0,
				"roughnessFactor":0.5
			}
		},
		{
			"doubleSided":true,
			"name":"Natural Oak (light)",
			"pbrMetallicRoughness":{
				"metallicFactor":0,
				"roughnessFactor":0.5
			}
		}
	],
	"meshes":[
		{
			"name":"Cube.004",
			"primitives":[
				{
					"attributes":{
						"POSITION":0,
						"NORMAL":1,
						"TEXCOORD_0":2
					},
					"indices":3,
					"material":0
				}
			]
		},
		{
			"name":"Cube.005",
			"primitives":[
				{
					"attributes":{
						"POSITION":4,
						"NORMAL":5,
						"TEXCOORD_0":6
					},
					"indices":3,
					"material":0
				}
			]
		},
		{
			"name":"Cube.009",
			"primitives":[
				{
					"attributes":{
						"POSITION":7,
						"NORMAL":8,
						"TEXCOORD_0":9
					},
					"indices":10,
					"material":0
				}
			]
		},
		{
			"name":"Cube.011",
			"primitives":[
				{
					"attributes":{
						"POSITION":11,
						"NORMAL":12,
						"TEXCOORD_0":13
					},
					"indices":10,
					"material":0
				}
			]
		},
		{
			"name":"Cylinder",
			"primitives":[
				{
					"attributes":{
						"POSITION":14,
						"NORMAL":15,
						"TEXCOORD_0":16
					},
					"indices":17,
					"material":0
				}
			]
		},
		{
			"name":"Cube",
			"primitives":[
				{
					"attributes":{
						"POSITION":18,
						"NORMAL":19,
						"TEXCOORD_0":20
					},
					"indices":21,
					"material":1
				}
			]
		},
		{
			"name":"Cylinder.003",
			"primitives":[
				{
					"attributes":{
						"POSITION":22,
						"NORMAL":23,
						"TEXCOORD_0":24
					},
					"indices":25
				}
			]
		},
		{
			"name":"Cylinder.005",
			"primitives":[
				{
					"attributes":{
						"POSITION":26,
						"NORMAL":27,
						"TEXCOORD_0":28
					},
					"indices":29
				}
			]
		},
		{
			"name":"Cylinder.006",
			"primitives":[
				{
					"attributes":{
						"POSITION":30,
						"NORMAL":31,
						"TEXCOORD_0":32
					},
					"indices":33
				}
			]
		},
		{
			"name":"Cube.013",
			"primitives":[
				{
					"attributes":{
						"POSITION":34,
						"NORMAL":35,
						"TEXCOORD_0":36
					},
					"indices":37,
					"material":0
				}
			]
		},
		{
			"name":"Grid",
			"primitives":[
				{
					"attributes":{
						"POSITION":38,
						"NORMAL":39
					},
					"indices":40,
					"material":2
				}
			]
		},
		{
			"name":"Cylinder.004",
			"primitives":[
				{
					"attributes":{
						"POSITION":41,
						"NORMAL":42,
						"TEXCOORD_0":43
					},
					"indices":44,
					"material":0
				}
			]
		},
		{
			"name":"Cube.013",
			"primitives":[
				{
					"attributes":{
						"POSITION":45,
						"NORMAL":46,
						"TEXCOORD_0":47
					},
					"indices":37,
					"material":0
				}
			]
		},
		{
			"name":"Grid",
			"primitives":[
				{
					"attributes":{
						"POSITION":48,
						"NORMAL":49
					},
					"indices":40,
					"material":2
				}
			]
		},
		{
			"name":"Cube.013",
			"primitives":[
				{
					"attributes":{
						"POSITION":50,
						"NORMAL":51,
						"TEXCOORD_0":52
					},
					"indices":37,
					"material":0
				}
			]
		},
		{
			"name":"Grid",
			"primitives":[
				{
					"attributes":{
						"POSITION":53,
						"NORMAL":54
					},
					"indices":40,
					"material":2
				}
			]
		},
		{
			"name":"Cube.013",
			"primitives":[
				{
					"attributes":{
						"POSITION":55,
						"NORMAL":56,
						"TEXCOORD_0":57
					},
					"indices":37,
					"material":0
				}
			]
		},
		{
			"name":"Grid",
			"primitives":[
				{
					"attributes":{
						"POSITION":58,
						"NORMAL":59
					},
					"indices":40,
					"material":2
				}
			]
		},
		{
			"name":"Grid.002",
			"primitives":[
				{
					"attributes":{
						"POSITION":60,
						"NORMAL":61,
						"TEXCOORD_0":62
					},
					"indices":63,
					"material":3
				}
			]
		},
		{
			"name":"Cube.008",
			"primitives":[
				{
					"attributes":{
						"POSITION":64,
						"NORMAL":65,
						"TEXCOORD_0":66
					},
					"indices":67,
					"material":2
				}
			]
		},
		{
			"name":"Sphere",
			"primitives":[
				{
					"attributes":{
						"POSITION":68,
						"NORMAL":69,
						"TEXCOORD_0":70
					},
					"indices":71,
					"material":0
				}
			]
		},
		{
			"name":"Torus.001",
			"primitives":[
				{
					"attributes":{
						"POSITION":72,
						"NORMAL":73,
						"TEXCOORD_0":74
					},
					"indices":75,
					"material":0
				}
			]
		},
		{
			"name":"Cylinder.001",
			"primitives":[
				{
					"attributes":{
						"POSITION":76,
						"NORMAL":77,
						"TEXCOORD_0":78
					},
					"indices":79,
					"material":2
				}
			]
		},
		{
			"name":"Cube.002",
			"primitives":[
				{
					"attributes":{
						"POSITION":80,
						"NORMAL":81,
						"TEXCOORD_0":82
					},
					"indices":83,
					"material":0
				}
			]
		},
		{
			"name":"Cube.010",
			"primitives":[
				{
					"attributes":{
						"POSITION":84,
						"NORMAL":85,
						"TEXCOORD_0":86
					},
					"indices":87,
					"material":0
				}
			]
		},
		{
			"name":"Cube.012",
			"primitives":[
				{
					"attributes":{
						"POSITION":88,
						"NORMAL":89,
						"TEXCOORD_0":90
					},
					"indices":87,
					"material":0
				}
			]
		},
		{
			"name":"Cube.003",
			"primitives":[
				{
					"attributes":{
						"POSITION":91,
						"NORMAL":92,
						"TEXCOORD_0":93
					},
					"indices":94,
					"material":2
				}
			]
		},
		{
			"name":"Cube.001",
			"primitives":[
				{
					"attributes":{
						"POSITION":95,
						"NORMAL":96,
						"TEXCOORD_0":97
					},
					"indices":98,
					"material":1
				}
			]
		},
		{
			"name":"Plane",
			"primitives":[
				{
					"attributes":{
						"POSITION":99,
						"NORMAL":100,
						"TEXCOORD_0":101
					},
					"indices":102,
					"material":4
				}
			]
		},
		{
			"name":"Plane.002",
			"primitives":[
				{
					"attributes":{
						"POSITION":103,
						"NORMAL":104,
						"TEXCOORD_0":105
					},
					"indices":106,
					"material":0
				}
			]
		},
		{
			"name":"Text",
			"primitives":[
				{
					"attributes":{
						"POSITION":107,
						"NORMAL":108,
						"TEXCOORD_0":109
					},
					"indices":110,
					"material":0
				}
			]
		},
		{
			"name":"Grid.002",
			"primitives":[
				{
					"attributes":{
						"POSITION":111,
						"NORMAL":112,
						"TEXCOORD_0":113
					},
					"indices":63,
					"material":3
				}
			]
		},
		{
			"name":"Plane.002",
			"primitives":[
				{
					"attributes":{
						"POSITION":114,
						"NORMAL":115,
						"TEXCOORD_0":116
					},
					"indices":106,
					"material":0
				}
			]
		},
		{
			"name":"Text",
			"primitives":[
				{
					"attributes":{
						"POSITION":117,
						"NORMAL":118,
						"TEXCOORD_0":119
					},
					"indices":110,
					"material":0
				}
			]
		},
		{
			"name":"skirtingboard",
			"primitives":[
				{
					"attributes":{
						"POSITION":120,
						"NORMAL":121,
						"TEXCOORD_0":122
					},
					"indices":123,
					"material":5
				}
			]
		},
		{
			"name":"Cube.006",
			"primitives":[
				{
					"attributes":{
						"POSITION":124,
						"NORMAL":125,
						"TEXCOORD_0":126
					},
					"indices":3,
					"material":5
				}
			]
		},
		{
			"name":"Sphere.001",
			"primitives":[
				{
					"attributes":{
						"POSITION":127,
						"NORMAL":128,
						"TEXCOORD_0":129
					},
					"indices":130,
					"material":5
				}
			]
		},
		{
			"name":"Cylinder.002",
			"primitives":[
				{
					"attributes":{
						"POSITION":131,
						"NORMAL":132,
						"TEXCOORD_0":133
					},
					"indices":29,
					"material":5
				}
			]
		},
		{
			"name":"Cube.020",
			"primitives":[
				{
					"attributes":{
						"POSITION":134,
						"NORMAL":135,
						"TEXCOORD_0":136
					},
					"indices":137,
					"material":5
				}
			]
		},
		{
			"name":"Cube.021",
			"primitives":[
				{
					"attributes":{
						"POSITION":138,
						"NORMAL":139,
						"TEXCOORD_0":140
					},
					"indices":137,
					"material":5
				}
			]
		},
		{
			"name":"Cube.022",
			"primitives":[
				{
					"attributes":{
						"POSITION":141,
						"NORMAL":142,
						"TEXCOORD_0":143
					},
					"indices":137,
					"material":5
				}
			]
		},
		{
			"name":"Cube.013",
			"primitives":[
				{
					"attributes":{
						"POSITION":144,
						"NORMAL":145,
						"TEXCOORD_0":146
					},
					"indices":37,
					"material":0
				}
			]
		},
		{
			"name":"Grid",
			"primitives":[
				{
					"attributes":{
						"POSITION":147,
						"NORMAL":148
					},
					"indices":40,
					"material":2
				}
			]
		},
		{
			"name":"Cube.013",
			"primitives":[
				{
					"attributes":{
						"POSITION":149,
						"NORMAL":150,
						"TEXCOORD_0":151
					},
					"indices":37,
					"material":0
				}
			]
		},
		{
			"name":"Grid",
			"primitives":[
				{
					"attributes":{
						"POSITION":152,
						"NORMAL":153
					},
					"indices":40,
					"material":2
				}
			]
		},
		{
			"name":"Cube.013",
			"primitives":[
				{
					"attributes":{
						"POSITION":154,
						"NORMAL":155,
						"TEXCOORD_0":156
					},
					"indices":37,
					"material":0
				}
			]
		},
		{
			"name":"Grid",
			"primitives":[
				{
					"attributes":{
						"POSITION":157,
						"NORMAL":158
					},
					"indices":40,
					"material":2
				}
			]
		},
		{
			"name":"Cube.013",
			"primitives":[
				{
					"attributes":{
						"POSITION":159,
						"NORMAL":160,
						"TEXCOORD_0":161
					},
					"indices":37,
					"material":0
				}
			]
		},
		{
			"name":"Grid",
			"primitives":[
				{
					"attributes":{
						"POSITION":162,
						"NORMAL":163
					},
					"indices":40,
					"material":2
				}
			]
		},
		{
			"name":"B\u00e9zierCurve",
			"primitives":[
				{
					"attributes":{
						"POSITION":164,
						"NORMAL":165
					},
					"indices":166,
					"material":5
				}
			]
		},
		{
			"name":"B\u00e9zierCurve.001",
			"primitives":[
				{
					"attributes":{
						"POSITION":167,
						"NORMAL":168
					},
					"indices":169,
					"material":5
				}
			]
		},
		{
			"name":"Plane.012",
			"primitives":[
				{
					"attributes":{
						"POSITION":170,
						"NORMAL":171,
						"TEXCOORD_0":172
					},
					"indices":102,
					"material":5
				}
			]
		},
		{
			"name":"Cube.020",
			"primitives":[
				{
					"attributes":{
						"POSITION":173,
						"NORMAL":174,
						"TEXCOORD_0":175
					},
					"indices":137,
					"material":5
				}
			]
		},
		{
			"name":"Cube.021",
			"primitives":[
				{
					"attributes":{
						"POSITION":176,
						"NORMAL":177,
						"TEXCOORD_0":178
					},
					"indices":137,
					"material":5
				}
			]
		},
		{
			"name":"Cube.022",
			"primitives":[
				{
					"attributes":{
						"POSITION":179,
						"NORMAL":180,
						"TEXCOORD_0":181
					},
					"indices":137,
					"material":5
				}
			]
		}
	],
	"textures":[
		{
			"sampler":0,
			"source":0
		},
		{
			"sampler":0,
			"source":1
		}
	],
	"images":[
		{
			"mimeType":"image/png",
			"name":"cave_canem",
			"uri":"cave_canem.png"
		},
		{
			"mimeType":"image/png",
			"name":"guppy",
			"uri":"guppy.png"
		}
	],
	"accessors":[
		{
			"bufferView":0,
			"componentType":5126,
			"count":24,
			"max":[
				0.050000011920928955,
				0.050000011920928955,
				0.050000011920928955
			],
			"min":[
				-0.050000011920928955,
				-0.050000011920928955,
				-0.050000011920928955
			],
			"type":"VEC3"
		},
		{
			"bufferView":1,
			"componentType":5126,
			"count":24,
			"type":"VEC3"
		},
		{
			"bufferView":2,
			"componentType":5126,
			"count":24,
			"type":"VEC2"
		},
		{
			"bufferView":3,
			"componentType":5123,
			"count":36,
			"type":"SCALAR"
		},
		{
			"bufferView":4,
			"componentType":5126,
			"count":24,
			"max":[
				0.050000011920928955,
				0.050000011920928955,
				0.050000011920928955
			],
			"min":[
				-0.050000011920928955,
				-0.050000011920928955,
				-0.050000011920928955
			],
			"type":"VEC3"
		},
		{
			"bufferView":5,
			"componentType":5126,
			"count":24,
			"type":"VEC3"
		},
		{
			"bufferView":6,
			"componentType":5126,
			"count":24,
			"type":"VEC2"
		},
		{
			"bufferView":7,
			"componentType":5126,
			"count":80,
			"max":[
				0.07500001788139343,
				0.7499999403953552,
				0.5074999332427979
			],
			"min":[
				-0.07500001788139343,
				-0.005560893565416336,
				-0.5074999332427979
			],
			"type":"VEC3"
		},
		{
			"bufferView":8,
			"componentType":5126,
			"count":80,
			"type":"VEC3"
		},
		{
			"bufferView":9,
			"componentType":5126,
			"count":80,
			"type":"VEC2"
		},
		{
			"bufferView":10,
			"componentType":5123,
			"count":132,
			"type":"SCALAR"
		},
		{
			"bufferView":11,
			"componentType":5126,
			"count":80,
			"max":[
				0.07500001788139343,
				0.7499999403953552,
				0.5074999332427979
			],
			"min":[
				-0.07500001788139343,
				-0.005560893565416336,
				-0.5074999332427979
			],
			"type":"VEC3"
		},
		{
			"bufferView":12,
			"componentType":5126,
			"count":80,
			"type":"VEC3"
		},
		{
			"bufferView":13,
			"componentType":5126,
			"count":80,
			"type":"VEC2"
		},
		{
			"bufferView":14,
			"componentType":5126,
			"count":192,
			"max":[
				0.20000004768371582,
				0.050000011920928955,
				0.050000011920928955
			],
			"min":[
				-0.20000004768371582,
				-0.050000011920928955,
				-0.050000011920928955
			],
			"type":"VEC3"
		},
		{
			"bufferView":15,
			"componentType":5126,
			"count":192,
			"type":"VEC3"
		},
		{
			"bufferView":16,
			"componentType":5126,
			"count":192,
			"type":"VEC2"
		},
		{
			"bufferView":17,
			"componentType":5123,
			"count":372,
			"type":"SCALAR"
		},
		{
			"bufferView":18,
			"componentType":5126,
			"count":120,
			"max":[
				1,
				1.25,
				0.5
			],
			"min":[
				-1,
				0.5,
				-0.5
			],
			"type":"VEC3"
		},
		{
			"bufferView":19,
			"componentType":5126,
			"count":120,
			"type":"VEC3"
		},
		{
			"bufferView":20,
			"componentType":5126,
			"count":120,
			"type":"VEC2"
		},
		{
			"bufferView":21,
			"componentType":5123,
			"count":228,
			"type":"SCALAR"
		},
		{
			"bufferView":22,
			"componentType":5126,
			"count":3264,
			"max":[
				1.200000524520874,
				4,
				1.2000000476837158
			],
			"min":[
				-1.2000000476837158,
				-4,
				-1.2000000476837158
			],
			"type":"VEC3"
		},
		{
			"bufferView":23,
			"componentType":5126,
			"count":3264,
			"type":"VEC3"
		},
		{
			"bufferView":24,
			"componentType":5126,
			"count":3264,
			"type":"VEC2"
		},
		{
			"bufferView":25,
			"componentType":5123,
			"count":6468,
			"type":"SCALAR"
		},
		{
			"bufferView":26,
			"componentType":5126,
			"count":192,
			"max":[
				1,
				1,
				1
			],
			"min":[
				-1,
				-1,
				-1
			],
			"type":"VEC3"
		},
		{
			"bufferView":27,
			"componentType":5126,
			"count":192,
			"type":"VEC3"
		},
		{
			"bufferView":28,
			"componentType":5126,
			"count":192,
			"type":"VEC2"
		},
		{
			"bufferView":29,
			"componentType":5123,
			"count":372,
			"type":"SCALAR"
		},
		{
			"bufferView":30,
			"componentType":5126,
			"count":268,
			"max":[
				2.6202573776245117,
				2.4000000953674316,
				1
			],
			"min":[
				-3.3333332538604736,
				-2.4000003337860107,
				-1
			],
			"type":"VEC3"
		},
		{
			"bufferView":31,
			"componentType":5126,
			"count":268,
			"type":"VEC3"
		},
		{
			"bufferView":32,
			"componentType":5126,
			"count":268,
			"type":"VEC2"
		},
		{
			"bufferView":33,
			"componentType":5123,
			"count":528,
			"type":"SCALAR"
		},
		{
			"bufferView":34,
			"componentType":5126,
			"count":168,
			"max":[
				1.3564146757125854,
				0.3999999761581421,
				1.3448132276535034
			],
			"min":[
				-1.356414556503296,
				-0.3999999761581421,
				-1.2999999523162842
			],
			"type":"VEC3"
		},
		{
			"bufferView":35,
			"componentType":5126,
			"count":168,
			"type":"VEC3"
		},
		{
			"bufferView":36,
			"componentType":5126,
			"count":168,
			"type":"VEC2"
		},
		{
			"bufferView":37,
			"componentType":5123,
			"count":252,
			"type":"SCALAR"
		},
		{
			"bufferView":38,
			"componentType":5126,
			"count":21164,
			"max":[
				0.3146536350250244,
				1.3258410692214966,
				1.3719240427017212
			],
			"min":[
				-0.3179180324077606,
				-1.3499999046325684,
				-1.3698251247406006
			],
			"type":"VEC3"
		},
		{
			"bufferView":39,
			"componentType":5126,
			"count":21164,
			"type":"VEC3"
		},
		{
			"bufferView":40,
			"componentType":5123,
			"count":29631,
			"type":"SCALAR"
		},
		{
			"bufferView":41,
			"componentType":5126,
			"count":384,
			"max":[
				1,
				1,
				1
			],
			"min":[
				-1,
				-1,
				-1
			],
			"type":"VEC3"
		},
		{
			"bufferView":42,
			"componentType":5126,
			"count":384,
			"type":"VEC3"
		},
		{
			"bufferView":43,
			"componentType":5126,
			"count":384,
			"type":"VEC2"
		},
		{
			"bufferView":44,
			"componentType":5123,
			"count":768,
			"type":"SCALAR"
		},
		{
			"bufferView":45,
			"componentType":5126,
			"count":168,
			"max":[
				1.3564146757125854,
				0.3999999761581421,
				1.3448132276535034
			],
			"min":[
				-1.356414556503296,
				-0.3999999761581421,
				-1.2999999523162842
			],
			"type":"VEC3"
		},
		{
			"bufferView":46,
			"componentType":5126,
			"count":168,
			"type":"VEC3"
		},
		{
			"bufferView":47,
			"componentType":5126,
			"count":168,
			"type":"VEC2"
		},
		{
			"bufferView":48,
			"componentType":5126,
			"count":21164,
			"max":[
				0.3146536350250244,
				1.3258410692214966,
				1.3719240427017212
			],
			"min":[
				-0.3179180324077606,
				-1.3499999046325684,
				-1.3698251247406006
			],
			"type":"VEC3"
		},
		{
			"bufferView":49,
			"componentType":5126,
			"count":21164,
			"type":"VEC3"
		},
		{
			"bufferView":50,
			"componentType":5126,
			"count":168,
			"max":[
				1.3564146757125854,
				0.3999999761581421,
				1.3448132276535034
			],
			"min":[
				-1.356414556503296,
				-0.3999999761581421,
				-1.2999999523162842
			],
			"type":"VEC3"
		},
		{
			"bufferView":51,
			"componentType":5126,
			"count":168,
			"type":"VEC3"
		},
		{
			"bufferView":52,
			"componentType":5126,
			"count":168,
			"type":"VEC2"
		},
		{
			"bufferView":53,
			"componentType":5126,
			"count":21164,
			"max":[
				0.3146536350250244,
				1.3258410692214966,
				1.3719240427017212
			],
			"min":[
				-0.3179180324077606,
				-1.3499999046325684,
				-1.3698251247406006
			],
			"type":"VEC3"
		},
		{
			"bufferView":54,
			"componentType":5126,
			"count":21164,
			"type":"VEC3"
		},
		{
			"bufferView":55,
			"componentType":5126,
			"count":168,
			"max":[
				1.3564146757125854,
				0.3999999761581421,
				1.3448132276535034
			],
			"min":[
				-1.356414556503296,
				-0.3999999761581421,
				-1.2999999523162842
			],
			"type":"VEC3"
		},
		{
			"bufferView":56,
			"componentType":5126,
			"count":168,
			"type":"VEC3"
		},
		{
			"bufferView":57,
			"componentType":5126,
			"count":168,
			"type":"VEC2"
		},
		{
			"bufferView":58,
			"componentType":5126,
			"count":21164,
			"max":[
				0.3146536350250244,
				1.3258410692214966,
				1.3719240427017212
			],
			"min":[
				-0.3179180324077606,
				-1.3499999046325684,
				-1.3698251247406006
			],
			"type":"VEC3"
		},
		{
			"bufferView":59,
			"componentType":5126,
			"count":21164,
			"type":"VEC3"
		},
		{
			"bufferView":60,
			"componentType":5126,
			"count":1536,
			"max":[
				3.9952046871185303,
				0.06785731762647629,
				3.9946858882904053
			],
			"min":[
				-3.9950387477874756,
				-0.06785731762647629,
				-3.995307207107544
			],
			"type":"VEC3"
		},
		{
			"bufferView":61,
			"componentType":5126,
			"count":1536,
			"type":"VEC3"
		},
		{
			"bufferView":62,
			"componentType":5126,
			"count":1536,
			"type":"VEC2"
		},
		{
			"bufferView":63,
			"componentType":5123,
			"count":2304,
			"type":"SCALAR"
		},
		{
			"bufferView":64,
			"componentType":5126,
			"count":1564,
			"max":[
				0.004000016022473574,
				0.025000009685754776,
				0.02500000409781933
			],
			"min":[
				-0.004000004380941391,
				-0.025000009685754776,
				-0.02500000409781933
			],
			"type":"VEC3"
		},
		{
			"bufferView":65,
			"componentType":5126,
			"count":1564,
			"type":"VEC3"
		},
		{
			"bufferView":66,
			"componentType":5126,
			"count":1564,
			"type":"VEC2"
		},
		{
			"bufferView":67,
			"componentType":5123,
			"count":3144,
			"type":"SCALAR"
		},
		{
			"bufferView":68,
			"componentType":5126,
			"count":296,
			"max":[
				0.9999997019767761,
				0,
				0.9999993443489075
			],
			"min":[
				-0.9999990463256836,
				-1,
				-1
			],
			"type":"VEC3"
		},
		{
			"bufferView":69,
			"componentType":5126,
			"count":296,
			"type":"VEC3"
		},
		{
			"bufferView":70,
			"componentType":5126,
			"count":296,
			"type":"VEC2"
		},
		{
			"bufferView":71,
			"componentType":5123,
			"count":1440,
			"type":"SCALAR"
		},
		{
			"bufferView":72,
			"componentType":5126,
			"count":2319,
			"max":[
				0.06875001639127731,
				0.014999998733401299,
				0.07500021904706955
			],
			"min":[
				-0.06875001639127731,
				-0.014999998733401299,
				-0.0312500074505806
			],
			"type":"VEC3"
		},
		{
			"bufferView":73,
			"componentType":5126,
			"count":2319,
			"type":"VEC3"
		},
		{
			"bufferView":74,
			"componentType":5126,
			"count":2319,
			"type":"VEC2"
		},
		{
			"bufferView":75,
			"componentType":5123,
			"count":11034,
			"type":"SCALAR"
		},
		{
			"bufferView":76,
			"componentType":5126,
			"count":394,
			"max":[
				0.014990576542913914,
				0.30000007152557373,
				0.014990642666816711
			],
			"min":[
				-0.014990576542913914,
				-1.341104507446289e-07,
				-0.01499051135033369
			],
			"type":"VEC3"
		},
		{
			"bufferView":77,
			"componentType":5126,
			"count":394,
			"type":"VEC3"
		},
		{
			"bufferView":78,
			"componentType":5126,
			"count":394,
			"type":"VEC2"
		},
		{
			"bufferView":79,
			"componentType":5123,
			"count":1140,
			"type":"SCALAR"
		},
		{
			"bufferView":80,
			"componentType":5126,
			"count":60,
			"max":[
				0.20000004768371582,
				0.20000006258487701,
				0.1000000461935997
			],
			"min":[
				-0.20000004768371582,
				-0.40000003576278687,
				-0.10000002384185791
			],
			"type":"VEC3"
		},
		{
			"bufferView":81,
			"componentType":5126,
			"count":60,
			"type":"VEC3"
		},
		{
			"bufferView":82,
			"componentType":5126,
			"count":60,
			"type":"VEC2"
		},
		{
			"bufferView":83,
			"componentType":5123,
			"count":108,
			"type":"SCALAR"
		},
		{
			"bufferView":84,
			"componentType":5126,
			"count":80,
			"max":[
				0.15000003576278687,
				2.014103889465332,
				1.0139271020889282
			],
			"min":[
				-0.15000003576278687,
				1.4999998807907104,
				-1.0139271020889282
			],
			"type":"VEC3"
		},
		{
			"bufferView":85,
			"componentType":5126,
			"count":80,
			"type":"VEC3"
		},
		{
			"bufferView":86,
			"componentType":5126,
			"count":80,
			"type":"VEC2"
		},
		{
			"bufferView":87,
			"componentType":5123,
			"count":132,
			"type":"SCALAR"
		},
		{
			"bufferView":88,
			"componentType":5126,
			"count":80,
			"max":[
				0.15000003576278687,
				2.014103889465332,
				1.0139271020889282
			],
			"min":[
				-0.15000003576278687,
				1.4999998807907104,
				-1.0139271020889282
			],
			"type":"VEC3"
		},
		{
			"bufferView":89,
			"componentType":5126,
			"count":80,
			"type":"VEC3"
		},
		{
			"bufferView":90,
			"componentType":5126,
			"count":80,
			"type":"VEC2"
		},
		{
			"bufferView":91,
			"componentType":5126,
			"count":210,
			"max":[
				0.09000004827976227,
				-0.009999955072999,
				0.00500000175088644
			],
			"min":[
				-0.09000004827976227,
				-0.1900000423192978,
				-0.005000003147870302
			],
			"type":"VEC3"
		},
		{
			"bufferView":92,
			"componentType":5126,
			"count":210,
			"type":"VEC3"
		},
		{
			"bufferView":93,
			"componentType":5126,
			"count":210,
			"type":"VEC2"
		},
		{
			"bufferView":94,
			"componentType":5123,
			"count":420,
			"type":"SCALAR"
		},
		{
			"bufferView":95,
			"componentType":5126,
			"count":84,
			"max":[
				1,
				0.25,
				0
			],
			"min":[
				-1,
				0,
				-1
			],
			"type":"VEC3"
		},
		{
			"bufferView":96,
			"componentType":5126,
			"count":84,
			"type":"VEC3"
		},
		{
			"bufferView":97,
			"componentType":5126,
			"count":84,
			"type":"VEC2"
		},
		{
			"bufferView":98,
			"componentType":5123,
			"count":132,
			"type":"SCALAR"
		},
		{
			"bufferView":99,
			"componentType":5126,
			"count":4,
			"max":[
				1,
				0,
				1
			],
			"min":[
				-1,
				0,
				-1
			],
			"type":"VEC3"
		},
		{
			"bufferView":100,
			"componentType":5126,
			"count":4,
			"type":"VEC3"
		},
		{
			"bufferView":101,
			"componentType":5126,
			"count":4,
			"type":"VEC2"
		},
		{
			"bufferView":102,
			"componentType":5123,
			"count":6,
			"type":"SCALAR"
		},
		{
			"bufferView":103,
			"componentType":5126,
			"count":328,
			"max":[
				1,
				0.050000011920928955,
				1.0000001192092896
			],
			"min":[
				-1,
				-9.48542506762351e-08,
				-1
			],
			"type":"VEC3"
		},
		{
			"bufferView":104,
			"componentType":5126,
			"count":328,
			"type":"VEC3"
		},
		{
			"bufferView":105,
			"componentType":5126,
			"count":328,
			"type":"VEC2"
		},
		{
			"bufferView":106,
			"componentType":5123,
			"count":504,
			"type":"SCALAR"
		},
		{
			"bufferView":107,
			"componentType":5126,
			"count":7688,
			"max":[
				0.9992940425872803,
				0,
				0
			],
			"min":[
				0.013413342647254467,
				-0.02500000037252903,
				-0.4786445200443268
			],
			"type":"VEC3"
		},
		{
			"bufferView":108,
			"componentType":5126,
			"count":7688,
			"type":"VEC3"
		},
		{
			"bufferView":109,
			"componentType":5126,
			"count":7688,
			"type":"VEC2"
		},
		{
			"bufferView":110,
			"componentType":5123,
			"count":12684,
			"type":"SCALAR"
		},
		{
			"bufferView":111,
			"componentType":5126,
			"count":1536,
			"max":[
				3.9952046871185303,
				0.06785731762647629,
				3.9946858882904053
			],
			"min":[
				-3.9950387477874756,
				-0.06785731762647629,
				-3.995307207107544
			],
			"type":"VEC3"
		},
		{
			"bufferView":112,
			"componentType":5126,
			"count":1536,
			"type":"VEC3"
		},
		{
			"bufferView":113,
			"componentType":5126,
			"count":1536,
			"type":"VEC2"
		},
		{
			"bufferView":114,
			"componentType":5126,
			"count":328,
			"max":[
				1,
				0.050000011920928955,
				1.0000001192092896
			],
			"min":[
				-1,
				-9.48542506762351e-08,
				-1
			],
			"type":"VEC3"
		},
		{
			"bufferView":115,
			"componentType":5126,
			"count":328,
			"type":"VEC3"
		},
		{
			"bufferView":116,
			"componentType":5126,
			"count":328,
			"type":"VEC2"
		},
		{
			"bufferView":117,
			"componentType":5126,
			"count":7688,
			"max":[
				0.9992940425872803,
				0,
				0
			],
			"min":[
				0.013413342647254467,
				-0.02500000037252903,
				-0.4786445200443268
			],
			"type":"VEC3"
		},
		{
			"bufferView":118,
			"componentType":5126,
			"count":7688,
			"type":"VEC3"
		},
		{
			"bufferView":119,
			"componentType":5126,
			"count":7688,
			"type":"VEC2"
		},
		{
			"bufferView":120,
			"componentType":5126,
			"count":2310,
			"max":[
				3.999953031539917,
				0.15002191066741943,
				3.999953031539917
			],
			"min":[
				-3.999953031539917,
				2.1881874999962747e-05,
				-3.999953031539917
			],
			"type":"VEC3"
		},
		{
			"bufferView":121,
			"componentType":5126,
			"count":2310,
			"type":"VEC3"
		},
		{
			"bufferView":122,
			"componentType":5126,
			"count":2310,
			"type":"VEC2"
		},
		{
			"bufferView":123,
			"componentType":5123,
			"count":12138,
			"type":"SCALAR"
		},
		{
			"bufferView":124,
			"componentType":5126,
			"count":24,
			"max":[
				1,
				1,
				1
			],
			"min":[
				-1,
				-1,
				-1
			],
			"type":"VEC3"
		},
		{
			"bufferView":125,
			"componentType":5126,
			"count":24,
			"type":"VEC3"
		},
		{
			"bufferView":126,
			"componentType":5126,
			"count":24,
			"type":"VEC2"
		},
		{
			"bufferView":127,
			"componentType":5126,
			"count":559,
			"max":[
				0.9999997019767761,
				1,
				0.9999993443489075
			],
			"min":[
				-0.9999990463256836,
				-1,
				-1
			],
			"type":"VEC3"
		},
		{
			"bufferView":128,
			"componentType":5126,
			"count":559,
			"type":"VEC3"
		},
		{
			"bufferView":129,
			"componentType":5126,
			"count":559,
			"type":"VEC2"
		},
		{
			"bufferView":130,
			"componentType":5123,
			"count":2880,
			"type":"SCALAR"
		},
		{
			"bufferView":131,
			"componentType":5126,
			"count":192,
			"max":[
				1,
				1,
				1
			],
			"min":[
				-1,
				-1,
				-1
			],
			"type":"VEC3"
		},
		{
			"bufferView":132,
			"componentType":5126,
			"count":192,
			"type":"VEC3"
		},
		{
			"bufferView":133,
			"componentType":5126,
			"count":192,
			"type":"VEC2"
		},
		{
			"bufferView":134,
			"componentType":5126,
			"count":1440,
			"max":[
				7.9000020027160645,
				0.5,
				0.019999980926513672
			],
			"min":[
				-0.10000002384185791,
				-0.5,
				-0.019999980926513672
			],
			"type":"VEC3"
		},
		{
			"bufferView":135,
			"componentType":5126,
			"count":1440,
			"type":"VEC3"
		},
		{
			"bufferView":136,
			"componentType":5126,
			"count":1440,
			"type":"VEC2"
		},
		{
			"bufferView":137,
			"componentType":5123,
			"count":2400,
			"type":"SCALAR"
		},
		{
			"bufferView":138,
			"componentType":5126,
			"count":1440,
			"max":[
				7.9000020027160645,
				0.5,
				0.019999980926513672
			],
			"min":[
				-0.10000002384185791,
				-0.5,
				-0.019999980926513672
			],
			"type":"VEC3"
		},
		{
			"bufferView":139,
			"componentType":5126,
			"count":1440,
			"type":"VEC3"
		},
		{
			"bufferView":140,
			"componentType":5126,
			"count":1440,
			"type":"VEC2"
		},
		{
			"bufferView":141,
			"componentType":5126,
			"count":1440,
			"max":[
				7.9000020027160645,
				0.5,
				0.019999980926513672
			],
			"min":[
				-0.10000002384185791,
				-0.5,
				-0.019999980926513672
			],
			"type":"VEC3"
		},
		{
			"bufferView":142,
			"componentType":5126,
			"count":1440,
			"type":"VEC3"
		},
		{
			"bufferView":143,
			"componentType":5126,
			"count":1440,
			"type":"VEC2"
		},
		{
			"bufferView":144,
			"componentType":5126,
			"count":168,
			"max":[
				1.3564146757125854,
				0.3999999761581421,
				1.3448132276535034
			],
			"min":[
				-1.356414556503296,
				-0.3999999761581421,
				-1.2999999523162842
			],
			"type":"VEC3"
		},
		{
			"bufferView":145,
			"componentType":5126,
			"count":168,
			"type":"VEC3"
		},
		{
			"bufferView":146,
			"componentType":5126,
			"count":168,
			"type":"VEC2"
		},
		{
			"bufferView":147,
			"componentType":5126,
			"count":21164,
			"max":[
				0.3146536350250244,
				1.3258410692214966,
				1.3719240427017212
			],
			"min":[
				-0.3179180324077606,
				-1.3499999046325684,
				-1.3698251247406006
			],
			"type":"VEC3"
		},
		{
			"bufferView":148,
			"componentType":5126,
			"count":21164,
			"type":"VEC3"
		},
		{
			"bufferView":149,
			"componentType":5126,
			"count":168,
			"max":[
				1.3564146757125854,
				0.3999999761581421,
				1.3448132276535034
			],
			"min":[
				-1.356414556503296,
				-0.3999999761581421,
				-1.2999999523162842
			],
			"type":"VEC3"
		},
		{
			"bufferView":150,
			"componentType":5126,
			"count":168,
			"type":"VEC3"
		},
		{
			"bufferView":151,
			"componentType":5126,
			"count":168,
			"type":"VEC2"
		},
		{
			"bufferView":152,
			"componentType":5126,
			"count":21164,
			"max":[
				0.3146536350250244,
				1.3258410692214966,
				1.3719240427017212
			],
			"min":[
				-0.3179180324077606,
				-1.3499999046325684,
				-1.3698251247406006
			],
			"type":"VEC3"
		},
		{
			"bufferView":153,
			"componentType":5126,
			"count":21164,
			"type":"VEC3"
		},
		{
			"bufferView":154,
			"componentType":5126,
			"count":168,
			"max":[
				1.3564146757125854,
				0.3999999761581421,
				1.3448132276535034
			],
			"min":[
				-1.356414556503296,
				-0.3999999761581421,
				-1.2999999523162842
			],
			"type":"VEC3"
		},
		{
			"bufferView":155,
			"componentType":5126,
			"count":168,
			"type":"VEC3"
		},
		{
			"bufferView":156,
			"componentType":5126,
			"count":168,
			"type":"VEC2"
		},
		{
			"bufferView":157,
			"componentType":5126,
			"count":21164,
			"max":[
				0.3146536350250244,
				1.3258410692214966,
				1.3719240427017212
			],
			"min":[
				-0.3179180324077606,
				-1.3499999046325684,
				-1.3698251247406006
			],
			"type":"VEC3"
		},
		{
			"bufferView":158,
			"componentType":5126,
			"count":21164,
			"type":"VEC3"
		},
		{
			"bufferView":159,
			"componentType":5126,
			"count":168,
			"max":[
				1.3564146757125854,
				0.3999999761581421,
				1.3448132276535034
			],
			"min":[
				-1.356414556503296,
				-0.3999999761581421,
				-1.2999999523162842
			],
			"type":"VEC3"
		},
		{
			"bufferView":160,
			"componentType":5126,
			"count":168,
			"type":"VEC3"
		},
		{
			"bufferView":161,
			"componentType":5126,
			"count":168,
			"type":"VEC2"
		},
		{
			"bufferView":162,
			"componentType":5126,
			"count":21164,
			"max":[
				0.3146536350250244,
				1.3258410692214966,
				1.3719240427017212
			],
			"min":[
				-0.3179180324077606,
				-1.3499999046325684,
				-1.3698251247406006
			],
			"type":"VEC3"
		},
		{
			"bufferView":163,
			"componentType":5126,
			"count":21164,
			"type":"VEC3"
		},
		{
			"bufferView":164,
			"componentType":5126,
			"count":548,
			"max":[
				0.5498343706130981,
				0.15002191066741943,
				0.07541944831609726
			],
			"min":[
				-0.4986426532268524,
				2.188630787713919e-05,
				-0.054544977843761444
			],
			"type":"VEC3"
		},
		{
			"bufferView":165,
			"componentType":5126,
			"count":548,
			"type":"VEC3"
		},
		{
			"bufferView":166,
			"componentType":5123,
			"count":1608,
			"type":"SCALAR"
		},
		{
			"bufferView":167,
			"componentType":5126,
			"count":548,
			"max":[
				0.054627612233161926,
				0.15002191066741943,
				-0.48201775550842285
			],
			"min":[
				-0.9996694326400757,
				2.188630787713919e-05,
				-0.6126219034194946
			],
			"type":"VEC3"
		},
		{
			"bufferView":168,
			"componentType":5126,
			"count":548,
			"type":"VEC3"
		},
		{
			"bufferView":169,
			"componentType":5123,
			"count":1608,
			"type":"SCALAR"
		},
		{
			"bufferView":170,
			"componentType":5126,
			"count":4,
			"max":[
				1,
				0,
				1
			],
			"min":[
				-1,
				0,
				-1
			],
			"type":"VEC3"
		},
		{
			"bufferView":171,
			"componentType":5126,
			"count":4,
			"type":"VEC3"
		},
		{
			"bufferView":172,
			"componentType":5126,
			"count":4,
			"type":"VEC2"
		},
		{
			"bufferView":173,
			"componentType":5126,
			"count":1440,
			"max":[
				7.9000020027160645,
				0.5,
				0.019999980926513672
			],
			"min":[
				-0.10000002384185791,
				-0.5,
				-0.019999980926513672
			],
			"type":"VEC3"
		},
		{
			"bufferView":174,
			"componentType":5126,
			"count":1440,
			"type":"VEC3"
		},
		{
			"bufferView":175,
			"componentType":5126,
			"count":1440,
			"type":"VEC2"
		},
		{
			"bufferView":176,
			"componentType":5126,
			"count":1440,
			"max":[
				7.9000020027160645,
				0.5,
				0.019999980926513672
			],
			"min":[
				-0.10000002384185791,
				-0.5,
				-0.019999980926513672
			],
			"type":"VEC3"
		},
		{
			"bufferView":177,
			"componentType":5126,
			"count":1440,
			"type":"VEC3"
		},
		{
			"bufferView":178,
			"componentType":5126,
			"count":1440,
			"type":"VEC2"
		},
		{
			"bufferView":179,
			"componentType":5126,
			"count":1440,
			"max":[
				7.9000020027160645,
				0.5,
				0.019999980926513672
			],
			"min":[
				-0.10000002384185791,
				-0.5,
				-0.019999980926513672
			],
			"type":"VEC3"
		},
		{
			"bufferView":180,
			"componentType":5126,
			"count":1440,
			"type":"VEC3"
		},
		{
			"bufferView":181,
			"componentType":5126,
			"count":1440,
			"type":"VEC2"
		}
	],
	"bufferViews":[
		{
			"buffer":0,
			"byteLength":288,
			"byteOffset":0,
			"target":34962
		},
		{
			"buffer":0,
			"byteLength":288,
			"byteOffset":288,
			"target":34962
		},
		{
			"buffer":0,
			"byteLength":192,
			"byteOffset":576,
			"target":34962
		},
		{
			"buffer":0,
			"byteLength":72,
			"byteOffset":768,
			"target":34963
		},
		{
			"buffer":0,
			"byteLength":288,
			"byteOffset":840,
			"target":34962
		},
		{
			"buffer":0,
			"byteLength":288,
			"byteOffset":1128,
			"target":34962
		},
		{
			"buffer":0,
			"byteLength":192,
			"byteOffset":1416,
			"target":34962
		},
		{
			"buffer":0,
			"byteLength":960,
			"byteOffset":1608,
			"target":34962
		},
		{
			"buffer":0,
			"byteLength":960,
			"byteOffset":2568,
			"target":34962
		},
		{
			"buffer":0,
			"byteLength":640,
			"byteOffset":3528,
			"target":34962
		},
		{
			"buffer":0,
			"byteLength":264,
			"byteOffset":4168,
			"target":34963
		},
		{
			"buffer":0,
			"byteLength":960,
			"byteOffset":4432,
			"target":34962
		},
		{
			"buffer":0,
			"byteLength":960,
			"byteOffset":5392,
			"target":34962
		},
		{
			"buffer":0,
			"byteLength":640,
			"byteOffset":6352,
			"target":34962
		},
		{
			"buffer":0,
			"byteLength":2304,
			"byteOffset":6992,
			"target":34962
		},
		{
			"buffer":0,
			"byteLength":2304,
			"byteOffset":9296,
			"target":34962
		},
		{
			"buffer":0,
			"byteLength":1536,
			"byteOffset":11600,
			"target":34962
		},
		{
			"buffer":0,
			"byteLength":744,
			"byteOffset":13136,
			"target":34963
		},
		{
			"buffer":0,
			"byteLength":1440,
			"byteOffset":13880,
			"target":34962
		},
		{
			"buffer":0,
			"byteLength":1440,
			"byteOffset":15320,
			"target":34962
		},
		{
			"buffer":0,
			"byteLength":960,
			"byteOffset":16760,
			"target":34962
		},
		{
			"buffer":0,
			"byteLength":456,
			"byteOffset":17720,
			"target":34963
		},
		{
			"buffer":0,
			"byteLength":39168,
			"byteOffset":18176,
			"target":34962
		},
		{
			"buffer":0,
			"byteLength":39168,
			"byteOffset":57344,
			"target":34962
		},
		{
			"buffer":0,
			"byteLength":26112,
			"byteOffset":96512,
			"target":34962
		},
		{
			"buffer":0,
			"byteLength":12936,
			"byteOffset":122624,
			"target":34963
		},
		{
			"buffer":0,
			"byteLength":2304,
			"byteOffset":135560,
			"target":34962
		},
		{
			"buffer":0,
			"byteLength":2304,
			"byteOffset":137864,
			"target":34962
		},
		{
			"buffer":0,
			"byteLength":1536,
			"byteOffset":140168,
			"target":34962
		},
		{
			"buffer":0,
			"byteLength":744,
			"byteOffset":141704,
			"target":34963
		},
		{
			"buffer":0,
			"byteLength":3216,
			"byteOffset":142448,
			"target":34962
		},
		{
			"buffer":0,
			"byteLength":3216,
			"byteOffset":145664,
			"target":34962
		},
		{
			"buffer":0,
			"byteLength":2144,
			"byteOffset":148880,
			"target":34962
		},
		{
			"buffer":0,
			"byteLength":1056,
			"byteOffset":151024,
			"target":34963
		},
		{
			"buffer":0,
			"byteLength":2016,
			"byteOffset":152080,
			"target":34962
		},
		{
			"buffer":0,
			"byteLength":2016,
			"byteOffset":154096,
			"target":34962
		},
		{
			"buffer":0,
			"byteLength":1344,
			"byteOffset":156112,
			"target":34962
		},
		{
			"buffer":0,
			"byteLength":504,
			"byteOffset":157456,
			"target":34963
		},
		{
			"buffer":0,
			"byteLength":253968,
			"byteOffset":157960,
			"target":34962
		},
		{
			"buffer":0,
			"byteLength":253968,
			"byteOffset":411928,
			"target":34962
		},
		{
			"buffer":0,
			"byteLength":59262,
			"byteOffset":665896,
			"target":34963
		},
		{
			"buffer":0,
			"byteLength":4608,
			"byteOffset":725160,
			"target":34962
		},
		{
			"buffer":0,
			"byteLength":4608,
			"byteOffset":729768,
			"target":34962
		},
		{
			"buffer":0,
			"byteLength":3072,
			"byteOffset":734376,
			"target":34962
		},
		{
			"buffer":0,
			"byteLength":1536,
			"byteOffset":737448,
			"target":34963
		},
		{
			"buffer":0,
			"byteLength":2016,
			"byteOffset":738984,
			"target":34962
		},
		{
			"buffer":0,
			"byteLength":2016,
			"byteOffset":741000,
			"target":34962
		},
		{
			"buffer":0,
			"byteLength":1344,
			"byteOffset":743016,
			"target":34962
		},
		{
			"buffer":0,
			"byteLength":253968,
			"byteOffset":744360,
			"target":34962
		},
		{
			"buffer":0,
			"byteLength":253968,
			"byteOffset":998328,
			"target":34962
		},
		{
			"buffer":0,
			"byteLength":2016,
			"byteOffset":1252296,
			"target":34962
		},
		{
			"buffer":0,
			"byteLength":2016,
			"byteOffset":1254312,
			"target":34962
		},
		{
			"buffer":0,
			"byteLength":1344,
			"byteOffset":1256328,
			"target":34962
		},
		{
			"buffer":0,
			"byteLength":253968,
			"byteOffset":1257672,
			"target":34962
		},
		{
			"buffer":0,
			"byteLength":253968,
			"byteOffset":1511640,
			"target":34962
		},
		{
			"buffer":0,
			"byteLength":2016,
			"byteOffset":1765608,
			"target":34962
		},
		{
			"buffer":0,
			"byteLength":2016,
			"byteOffset":1767624,
			"target":34962
		},
		{
			"buffer":0,
			"byteLength":1344,
			"byteOffset":1769640,
			"target":34962
		},
		{
			"buffer":0,
			"byteLength":253968,
			"byteOffset":1770984,
			"target":34962
		},
		{
			"buffer":0,
			"byteLength":253968,
			"byteOffset":2024952,
			"target":34962
		},
		{
			"buffer":0,
			"byteLength":18432,
			"byteOffset":2278920,
			"target":34962
		},
		{
			"buffer":0,
			"byteLength":18432,
			"byteOffset":2297352,
			"target":34962
		},
		{
			"buffer":0,
			"byteLength":12288,
			"byteOffset":2315784,
			"target":34962
		},
		{
			"buffer":0,
			"byteLength":4608,
			"byteOffset":2328072,
			"target":34963
		},
		{
			"buffer":0,
			"byteLength":18768,
			"byteOffset":2332680,
			"target":34962
		},
		{
			"buffer":0,
			"byteLength":18768,
			"byteOffset":2351448,
			"target":34962
		},
		{
			"buffer":0,
			"byteLength":12512,
			"byteOffset":2370216,
			"target":34962
		},
		{
			"buffer":0,
			"byteLength":6288,
			"byteOffset":2382728,
			"target":34963
		},
		{
			"buffer":0,
			"byteLength":3552,
			"byteOffset":2389016,
			"target":34962
		},
		{
			"buffer":0,
			"byteLength":3552,
			"byteOffset":2392568,
			"target":34962
		},
		{
			"buffer":0,
			"byteLength":2368,
			"byteOffset":2396120,
			"target":34962
		},
		{
			"buffer":0,
			"byteLength":2880,
			"byteOffset":2398488,
			"target":34963
		},
		{
			"buffer":0,
			"byteLength":27828,
			"byteOffset":2401368,
			"target":34962
		},
		{
			"buffer":0,
			"byteLength":27828,
			"byteOffset":2429196,
			"target":34962
		},
		{
			"buffer":0,
			"byteLength":18552,
			"byteOffset":2457024,
			"target":34962
		},
		{
			"buffer":0,
			"byteLength":22068,
			"byteOffset":2475576,
			"target":34963
		},
		{
			"buffer":0,
			"byteLength":4728,
			"byteOffset":2497644,
			"target":34962
		},
		{
			"buffer":0,
			"byteLength":4728,
			"byteOffset":2502372,
			"target":34962
		},
		{
			"buffer":0,
			"byteLength":3152,
			"byteOffset":2507100,
			"target":34962
		},
		{
			"buffer":0,
			"byteLength":2280,
			"byteOffset":2510252,
			"target":34963
		},
		{
			"buffer":0,
			"byteLength":720,
			"byteOffset":2512532,
			"target":34962
		},
		{
			"buffer":0,
			"byteLength":720,
			"byteOffset":2513252,
			"target":34962
		},
		{
			"buffer":0,
			"byteLength":480,
			"byteOffset":2513972,
			"target":34962
		},
		{
			"buffer":0,
			"byteLength":216,
			"byteOffset":2514452,
			"target":34963
		},
		{
			"buffer":0,
			"byteLength":960,
			"byteOffset":2514668,
			"target":34962
		},
		{
			"buffer":0,
			"byteLength":960,
			"byteOffset":2515628,
			"target":34962
		},
		{
			"buffer":0,
			"byteLength":640,
			"byteOffset":2516588,
			"target":34962
		},
		{
			"buffer":0,
			"byteLength":264,
			"byteOffset":2517228,
			"target":34963
		},
		{
			"buffer":0,
			"byteLength":960,
			"byteOffset":2517492,
			"target":34962
		},
		{
			"buffer":0,
			"byteLength":960,
			"byteOffset":2518452,
			"target":34962
		},
		{
			"buffer":0,
			"byteLength":640,
			"byteOffset":2519412,
			"target":34962
		},
		{
			"buffer":0,
			"byteLength":2520,
			"byteOffset":2520052,
			"target":34962
		},
		{
			"buffer":0,
			"byteLength":2520,
			"byteOffset":2522572,
			"target":34962
		},
		{
			"buffer":0,
			"byteLength":1680,
			"byteOffset":2525092,
			"target":34962
		},
		{
			"buffer":0,
			"byteLength":840,
			"byteOffset":2526772,
			"target":34963
		},
		{
			"buffer":0,
			"byteLength":1008,
			"byteOffset":2527612,
			"target":34962
		},
		{
			"buffer":0,
			"byteLength":1008,
			"byteOffset":2528620,
			"target":34962
		},
		{
			"buffer":0,
			"byteLength":672,
			"byteOffset":2529628,
			"target":34962
		},
		{
			"buffer":0,
			"byteLength":264,
			"byteOffset":2530300,
			"target":34963
		},
		{
			"buffer":0,
			"byteLength":48,
			"byteOffset":2530564,
			"target":34962
		},
		{
			"buffer":0,
			"byteLength":48,
			"byteOffset":2530612,
			"target":34962
		},
		{
			"buffer":0,
			"byteLength":32,
			"byteOffset":2530660,
			"target":34962
		},
		{
			"buffer":0,
			"byteLength":12,
			"byteOffset":2530692,
			"target":34963
		},
		{
			"buffer":0,
			"byteLength":3936,
			"byteOffset":2530704,
			"target":34962
		},
		{
			"buffer":0,
			"byteLength":3936,
			"byteOffset":2534640,
			"target":34962
		},
		{
			"buffer":0,
			"byteLength":2624,
			"byteOffset":2538576,
			"target":34962
		},
		{
			"buffer":0,
			"byteLength":1008,
			"byteOffset":2541200,
			"target":34963
		},
		{
			"buffer":0,
			"byteLength":92256,
			"byteOffset":2542208,
			"target":34962
		},
		{
			"buffer":0,
			"byteLength":92256,
			"byteOffset":2634464,
			"target":34962
		},
		{
			"buffer":0,
			"byteLength":61504,
			"byteOffset":2726720,
			"target":34962
		},
		{
			"buffer":0,
			"byteLength":25368,
			"byteOffset":2788224,
			"target":34963
		},
		{
			"buffer":0,
			"byteLength":18432,
			"byteOffset":2813592,
			"target":34962
		},
		{
			"buffer":0,
			"byteLength":18432,
			"byteOffset":2832024,
			"target":34962
		},
		{
			"buffer":0,
			"byteLength":12288,
			"byteOffset":2850456,
			"target":34962
		},
		{
			"buffer":0,
			"byteLength":3936,
			"byteOffset":2862744,
			"target":34962
		},
		{
			"buffer":0,
			"byteLength":3936,
			"byteOffset":2866680,
			"target":34962
		},
		{
			"buffer":0,
			"byteLength":2624,
			"byteOffset":2870616,
			"target":34962
		},
		{
			"buffer":0,
			"byteLength":92256,
			"byteOffset":2873240,
			"target":34962
		},
		{
			"buffer":0,
			"byteLength":92256,
			"byteOffset":2965496,
			"target":34962
		},
		{
			"buffer":0,
			"byteLength":61504,
			"byteOffset":3057752,
			"target":34962
		},
		{
			"buffer":0,
			"byteLength":27720,
			"byteOffset":3119256,
			"target":34962
		},
		{
			"buffer":0,
			"byteLength":27720,
			"byteOffset":3146976,
			"target":34962
		},
		{
			"buffer":0,
			"byteLength":18480,
			"byteOffset":3174696,
			"target":34962
		},
		{
			"buffer":0,
			"byteLength":24276,
			"byteOffset":3193176,
			"target":34963
		},
		{
			"buffer":0,
			"byteLength":288,
			"byteOffset":3217452,
			"target":34962
		},
		{
			"buffer":0,
			"byteLength":288,
			"byteOffset":3217740,
			"target":34962
		},
		{
			"buffer":0,
			"byteLength":192,
			"byteOffset":3218028,
			"target":34962
		},
		{
			"buffer":0,
			"byteLength":6708,
			"byteOffset":3218220,
			"target":34962
		},
		{
			"buffer":0,
			"byteLength":6708,
			"byteOffset":3224928,
			"target":34962
		},
		{
			"buffer":0,
			"byteLength":4472,
			"byteOffset":3231636,
			"target":34962
		},
		{
			"buffer":0,
			"byteLength":5760,
			"byteOffset":3236108,
			"target":34963
		},
		{
			"buffer":0,
			"byteLength":2304,
			"byteOffset":3241868,
			"target":34962
		},
		{
			"buffer":0,
			"byteLength":2304,
			"byteOffset":3244172,
			"target":34962
		},
		{
			"buffer":0,
			"byteLength":1536,
			"byteOffset":3246476,
			"target":34962
		},
		{
			"buffer":0,
			"byteLength":17280,
			"byteOffset":3248012,
			"target":34962
		},
		{
			"buffer":0,
			"byteLength":17280,
			"byteOffset":3265292,
			"target":34962
		},
		{
			"buffer":0,
			"byteLength":11520,
			"byteOffset":3282572,
			"target":34962
		},
		{
			"buffer":0,
			"byteLength":4800,
			"byteOffset":3294092,
			"target":34963
		},
		{
			"buffer":0,
			"byteLength":17280,
			"byteOffset":3298892,
			"target":34962
		},
		{
			"buffer":0,
			"byteLength":17280,
			"byteOffset":3316172,
			"target":34962
		},
		{
			"buffer":0,
			"byteLength":11520,
			"byteOffset":3333452,
			"target":34962
		},
		{
			"buffer":0,
			"byteLength":17280,
			"byteOffset":3344972,
			"target":34962
		},
		{
			"buffer":0,
			"byteLength":17280,
			"byteOffset":3362252,
			"target":34962
		},
		{
			"buffer":0,
			"byteLength":11520,
			"byteOffset":3379532,
			"target":34962
		},
		{
			"buffer":0,
			"byteLength":2016,
			"byteOffset":3391052,
			"target":34962
		},
		{
			"buffer":0,
			"byteLength":2016,
			"byteOffset":3393068,
			"target":34962
		},
		{
			"buffer":0,
			"byteLength":1344,
			"byteOffset":3395084,
			"target":34962
		},
		{
			"buffer":0,
			"byteLength":253968,
			"byteOffset":3396428,
			"target":34962
		},
		{
			"buffer":0,
			"byteLength":253968,
			"byteOffset":3650396,
			"target":34962
		},
		{
			"buffer":0,
			"byteLength":2016,
			"byteOffset":3904364,
			"target":34962
		},
		{
			"buffer":0,
			"byteLength":2016,
			"byteOffset":3906380,
			"target":34962
		},
		{
			"buffer":0,
			"byteLength":1344,
			"byteOffset":3908396,
			"target":34962
		},
		{
			"buffer":0,
			"byteLength":253968,
			"byteOffset":3909740,
			"target":34962
		},
		{
			"buffer":0,
			"byteLength":253968,
			"byteOffset":4163708,
			"target":34962
		},
		{
			"buffer":0,
			"byteLength":2016,
			"byteOffset":4417676,
			"target":34962
		},
		{
			"buffer":0,
			"byteLength":2016,
			"byteOffset":4419692,
			"target":34962
		},
		{
			"buffer":0,
			"byteLength":1344,
			"byteOffset":4421708,
			"target":34962
		},
		{
			"buffer":0,
			"byteLength":253968,
			"byteOffset":4423052,
			"target":34962
		},
		{
			"buffer":0,
			"byteLength":253968,
			"byteOffset":4677020,
			"target":34962
		},
		{
			"buffer":0,
			"byteLength":2016,
			"byteOffset":4930988,
			"target":34962
		},
		{
			"buffer":0,
			"byteLength":2016,
			"byteOffset":4933004,
			"target":34962
		},
		{
			"buffer":0,
			"byteLength":1344,
			"byteOffset":4935020,
			"target":34962
		},
		{
			"buffer":0,
			"byteLength":253968,
			"byteOffset":4936364,
			"target":34962
		},
		{
			"buffer":0,
			"byteLength":253968,
			"byteOffset":5190332,
			"target":34962
		},
		{
			"buffer":0,
			"byteLength":6576,
			"byteOffset":5444300,
			"target":34962
		},
		{
			"buffer":0,
			"byteLength":6576,
			"byteOffset":5450876,
			"target":34962
		},
		{
			"buffer":0,
			"byteLength":3216,
			"byteOffset":5457452,
			"target":34963
		},
		{
			"buffer":0,
			"byteLength":6576,
			"byteOffset":5460668,
			"target":34962
		},
		{
			"buffer":0,
			"byteLength":6576,
			"byteOffset":5467244,
			"target":34962
		},
		{
			"buffer":0,
			"byteLength":3216,
			"byteOffset":5473820,
			"target":34963
		},
		{
			"buffer":0,
			"byteLength":48,
			"byteOffset":5477036,
			"target":34962
		},
		{
			"buffer":0,
			"byteLength":48,
			"byteOffset":5477084,
			"target":34962
		},
		{
			"buffer":0,
			"byteLength":32,
			"byteOffset":5477132,
			"target":34962
		},
		{
			"buffer":0,
			"byteLength":17280,
			"byteOffset":5477164,
			"target":34962
		},
		{
			"buffer":0,
			"byteLength":17280,
			"byteOffset":5494444,
			"target":34962
		},
		{
			"buffer":0,
			"byteLength":11520,
			"byteOffset":5511724,
			"target":34962
		},
		{
			"buffer":0,
			"byteLength":17280,
			"byteOffset":5523244,
			"target":34962
		},
		{
			"buffer":0,
			"byteLength":17280,
			"byteOffset":5540524,
			"target":34962
		},
		{
			"buffer":0,
			"byteLength":11520,
			"byteOffset":5557804,
			"target":34962
		},
		{
			"buffer":0,
			"byteLength":17280,
			"byteOffset":5569324,
			"target":34962
		},
		{
			"buffer":0,
			"byteLength":17280,
			"byteOffset":5586604,
			"target":34962
		},
		{
			"buffer":0,
			"byteLength":11520,
			"byteOffset":5603884,
			"target":34962
		}
	],
	"samplers":[
		{
			"magFilter":9729,
			"minFilter":9987
		}
	],
	"buffers":[
		{
			"byteLength":5615404,
			"uri":"puzzle.bin"
		}
	]
}
